G04 #@! TF.FileFunction,Copper,L1,Top,Signal*
%FSLAX46Y46*%
G04 Gerber Fmt 4.6, Leading zero omitted, Abs format (unit mm)*
G04 Created by KiCad (PCBNEW 4.0.1-stable) date Tuesday, March 29, 2016 'AMt' 12:53:49 AM*
%MOMM*%
G01*
G04 APERTURE LIST*
%ADD10C,0.100000*%
%ADD11R,2.230000X1.800000*%
%ADD12R,1.250000X1.000000*%
%ADD13R,1.198880X1.198880*%
%ADD14R,1.500000X1.500000*%
%ADD15C,1.500000*%
%ADD16R,0.800100X0.800100*%
%ADD17R,0.700000X1.300000*%
%ADD18R,1.300000X0.700000*%
%ADD19R,1.200000X1.200000*%
%ADD20R,1.500000X1.600000*%
%ADD21O,1.501140X0.899160*%
%ADD22R,1.550000X0.600000*%
%ADD23C,0.508000*%
%ADD24C,0.250000*%
%ADD25C,0.254000*%
G04 APERTURE END LIST*
D10*
D11*
X127635000Y-104330000D03*
X127635000Y-101410000D03*
D12*
X131445000Y-96790000D03*
X131445000Y-98790000D03*
D13*
X135890000Y-96740980D03*
X135890000Y-98839020D03*
D14*
X158750000Y-106680000D03*
D15*
X158750000Y-104140000D03*
X158750000Y-101600000D03*
X158750000Y-99060000D03*
D16*
X150860760Y-99375000D03*
X150860760Y-97475000D03*
X148861780Y-98425000D03*
D17*
X148910000Y-103886000D03*
X150810000Y-103886000D03*
D18*
X153670000Y-97475000D03*
X153670000Y-99375000D03*
D17*
X147762000Y-108712000D03*
X145862000Y-108712000D03*
D18*
X142240000Y-106365000D03*
X142240000Y-108265000D03*
D17*
X146746000Y-105410000D03*
X144846000Y-105410000D03*
D18*
X140335000Y-98740000D03*
X140335000Y-96840000D03*
X146685000Y-100650000D03*
X146685000Y-102550000D03*
X143510000Y-101915000D03*
X143510000Y-100015000D03*
D19*
X151435000Y-106315000D03*
X151435000Y-108315000D03*
D20*
X154685000Y-107315000D03*
D21*
X121285000Y-102870000D03*
X121285000Y-104140000D03*
X121285000Y-101600000D03*
D22*
X133190000Y-102235000D03*
X133190000Y-103505000D03*
X133190000Y-104775000D03*
X133190000Y-106045000D03*
X138590000Y-106045000D03*
X138590000Y-104775000D03*
X138590000Y-103505000D03*
X138590000Y-102235000D03*
D23*
X129667000Y-104267000D02*
X130937000Y-104267000D01*
X130937000Y-104267000D02*
X131445000Y-104775000D01*
X121285000Y-102870000D02*
X119888000Y-102870000D01*
X133858000Y-95504000D02*
X134112000Y-95758000D01*
X129667000Y-95504000D02*
X133858000Y-95504000D01*
X125730000Y-99441000D02*
X129667000Y-95504000D01*
X121158000Y-99441000D02*
X125730000Y-99441000D01*
X119634000Y-100965000D02*
X121158000Y-99441000D01*
X119634000Y-102616000D02*
X119634000Y-100965000D01*
X119888000Y-102870000D02*
X119634000Y-102616000D01*
X153670000Y-97475000D02*
X156779000Y-97475000D01*
X160528000Y-102870000D02*
X159258000Y-104140000D01*
X160528000Y-97536000D02*
X160528000Y-102870000D01*
X160274000Y-97282000D02*
X160528000Y-97536000D01*
X156972000Y-97282000D02*
X160274000Y-97282000D01*
X156779000Y-97475000D02*
X156972000Y-97282000D01*
X159258000Y-104140000D02*
X158750000Y-104140000D01*
X135890000Y-98839020D02*
X134907020Y-98839020D01*
X134907020Y-98839020D02*
X134112000Y-98044000D01*
X134112000Y-98044000D02*
X134112000Y-95758000D01*
X148381760Y-94996000D02*
X150860760Y-97475000D01*
X134112000Y-95758000D02*
X134874000Y-94996000D01*
X134874000Y-94996000D02*
X148381760Y-94996000D01*
X121285000Y-102870000D02*
X124460000Y-102870000D01*
X124460000Y-102870000D02*
X125920000Y-104330000D01*
X125920000Y-104330000D02*
X127635000Y-104330000D01*
X142240000Y-108265000D02*
X140777000Y-108265000D01*
X134587000Y-107442000D02*
X133190000Y-106045000D01*
X139954000Y-107442000D02*
X134587000Y-107442000D01*
X140777000Y-108265000D02*
X139954000Y-107442000D01*
X133190000Y-104775000D02*
X131445000Y-104775000D01*
X135890000Y-98839020D02*
X131494020Y-98839020D01*
X129667000Y-104267000D02*
X129604000Y-104330000D01*
X129604000Y-104330000D02*
X127635000Y-104330000D01*
X133190000Y-103505000D02*
X133190000Y-104775000D01*
X133190000Y-104775000D02*
X133190000Y-106045000D01*
X150860760Y-97475000D02*
X153670000Y-97475000D01*
X138590000Y-102235000D02*
X136906000Y-102235000D01*
X135255000Y-100584000D02*
X128461000Y-100584000D01*
X136906000Y-102235000D02*
X135255000Y-100584000D01*
X128461000Y-100584000D02*
X127635000Y-101410000D01*
X154685000Y-107315000D02*
X154685000Y-104012000D01*
X121285000Y-101600000D02*
X127445000Y-101600000D01*
X127445000Y-101600000D02*
X127635000Y-101410000D01*
X131445000Y-96790000D02*
X130286000Y-96790000D01*
X127635000Y-99441000D02*
X127635000Y-101410000D01*
X130286000Y-96790000D02*
X127635000Y-99441000D01*
X138590000Y-102235000D02*
X138590000Y-100744000D01*
X141732000Y-98044000D02*
X141732000Y-101346000D01*
X141732000Y-101346000D02*
X142301000Y-101915000D01*
X142301000Y-101915000D02*
X143510000Y-101915000D01*
X141478000Y-97790000D02*
X141732000Y-98044000D01*
X139192000Y-97790000D02*
X141478000Y-97790000D01*
X138176000Y-98806000D02*
X139192000Y-97790000D01*
X138176000Y-100330000D02*
X138176000Y-98806000D01*
X138590000Y-100744000D02*
X138176000Y-100330000D01*
X154685000Y-107315000D02*
X158115000Y-107315000D01*
X158115000Y-107315000D02*
X158750000Y-106680000D01*
X135890000Y-96740980D02*
X140235980Y-96740980D01*
X140235980Y-96740980D02*
X140335000Y-96840000D01*
X148861780Y-98425000D02*
X155067000Y-98425000D01*
X157226000Y-101600000D02*
X158750000Y-101600000D01*
X155702000Y-100076000D02*
X157226000Y-101600000D01*
X155702000Y-99060000D02*
X155702000Y-100076000D01*
X155067000Y-98425000D02*
X155702000Y-99060000D01*
X143510000Y-100015000D02*
X144968000Y-100015000D01*
X146558000Y-98425000D02*
X148861780Y-98425000D01*
X144968000Y-100015000D02*
X146558000Y-98425000D01*
X121285000Y-104140000D02*
X123317000Y-104140000D01*
X147762000Y-109667000D02*
X147762000Y-108712000D01*
X147066000Y-110363000D02*
X147762000Y-109667000D01*
X136017000Y-110363000D02*
X147066000Y-110363000D01*
X133350000Y-107696000D02*
X136017000Y-110363000D01*
X126873000Y-107696000D02*
X133350000Y-107696000D01*
X123317000Y-104140000D02*
X126873000Y-107696000D01*
X146685000Y-100650000D02*
X149585760Y-100650000D01*
X149585760Y-100650000D02*
X150860760Y-99375000D01*
X148910000Y-103886000D02*
X148910000Y-102423000D01*
X153670000Y-100076000D02*
X153670000Y-99375000D01*
X152527000Y-101219000D02*
X153670000Y-100076000D01*
X150114000Y-101219000D02*
X152527000Y-101219000D01*
X148910000Y-102423000D02*
X150114000Y-101219000D01*
X138590000Y-104775000D02*
X141605000Y-104775000D01*
X148910000Y-106360000D02*
X148910000Y-103886000D01*
X148336000Y-106934000D02*
X148910000Y-106360000D01*
X146050000Y-106934000D02*
X148336000Y-106934000D01*
X145796000Y-106680000D02*
X146050000Y-106934000D01*
X145796000Y-104394000D02*
X145796000Y-106680000D01*
X145288000Y-103886000D02*
X145796000Y-104394000D01*
X142494000Y-103886000D02*
X145288000Y-103886000D01*
X141605000Y-104775000D02*
X142494000Y-103886000D01*
X150810000Y-103886000D02*
X151638000Y-103886000D01*
X151638000Y-103886000D02*
X151638000Y-103820000D01*
X151130000Y-103820000D02*
X151638000Y-103820000D01*
X151638000Y-103820000D02*
X152080000Y-103820000D01*
X152289000Y-108315000D02*
X151435000Y-108315000D01*
D24*
X152908000Y-107696000D02*
X152289000Y-108315000D01*
D23*
X152908000Y-104648000D02*
X152908000Y-107696000D01*
X152080000Y-103820000D02*
X152908000Y-104648000D01*
X142240000Y-106365000D02*
X143891000Y-106365000D01*
X143891000Y-106365000D02*
X144846000Y-105410000D01*
X144846000Y-105410000D02*
X144846000Y-107696000D01*
X144846000Y-107696000D02*
X145862000Y-108712000D01*
X142433000Y-106172000D02*
X142240000Y-106365000D01*
X142240000Y-106365000D02*
X138910000Y-106365000D01*
X138910000Y-106365000D02*
X138590000Y-106045000D01*
X146746000Y-105410000D02*
X146746000Y-102611000D01*
X146746000Y-102611000D02*
X146685000Y-102550000D01*
X139827000Y-103505000D02*
X141351000Y-103505000D01*
X146111000Y-103124000D02*
X146685000Y-102550000D01*
X141732000Y-103124000D02*
X146111000Y-103124000D01*
X141351000Y-103505000D02*
X141732000Y-103124000D01*
X138590000Y-103505000D02*
X139827000Y-103505000D01*
X140335000Y-100711000D02*
X140335000Y-98740000D01*
X140716000Y-101092000D02*
X140335000Y-100711000D01*
X140716000Y-102616000D02*
X140716000Y-101092000D01*
X139827000Y-103505000D02*
X140716000Y-102616000D01*
D25*
G36*
X160909000Y-110542000D02*
X148144236Y-110542000D01*
X148390618Y-110295618D01*
X148583330Y-110007205D01*
X148642318Y-109710650D01*
X148708431Y-109613890D01*
X148759440Y-109362000D01*
X148759440Y-108062000D01*
X148715162Y-107826683D01*
X148670037Y-107756556D01*
X148676206Y-107755329D01*
X148964618Y-107562618D01*
X149538618Y-106988618D01*
X149731330Y-106700205D01*
X149799000Y-106360000D01*
X149799000Y-104871943D01*
X149856431Y-104787890D01*
X149859081Y-104774803D01*
X149995910Y-104987441D01*
X150208110Y-105132431D01*
X150460000Y-105183440D01*
X150488410Y-105183440D01*
X150383559Y-105250910D01*
X150238569Y-105463110D01*
X150187560Y-105715000D01*
X150187560Y-106915000D01*
X150231838Y-107150317D01*
X150338759Y-107316477D01*
X150238569Y-107463110D01*
X150187560Y-107715000D01*
X150187560Y-108915000D01*
X150231838Y-109150317D01*
X150370910Y-109366441D01*
X150583110Y-109511431D01*
X150835000Y-109562440D01*
X152035000Y-109562440D01*
X152270317Y-109518162D01*
X152486441Y-109379090D01*
X152631431Y-109166890D01*
X152638936Y-109129827D01*
X152917618Y-108943618D01*
X153401955Y-108459281D01*
X153470910Y-108566441D01*
X153683110Y-108711431D01*
X153935000Y-108762440D01*
X155435000Y-108762440D01*
X155670317Y-108718162D01*
X155886441Y-108579090D01*
X156031431Y-108366890D01*
X156064417Y-108204000D01*
X158115000Y-108204000D01*
X158455206Y-108136329D01*
X158543339Y-108077440D01*
X159500000Y-108077440D01*
X159735317Y-108033162D01*
X159951441Y-107894090D01*
X160096431Y-107681890D01*
X160147440Y-107430000D01*
X160147440Y-105930000D01*
X160103162Y-105694683D01*
X159964090Y-105478559D01*
X159751890Y-105333569D01*
X159500000Y-105282560D01*
X159493647Y-105282560D01*
X159541912Y-105111517D01*
X158750000Y-104319605D01*
X157958088Y-105111517D01*
X158006353Y-105282560D01*
X158000000Y-105282560D01*
X157764683Y-105326838D01*
X157548559Y-105465910D01*
X157403569Y-105678110D01*
X157352560Y-105930000D01*
X157352560Y-106426000D01*
X156065693Y-106426000D01*
X156038162Y-106279683D01*
X155899090Y-106063559D01*
X155686890Y-105918569D01*
X155574000Y-105895708D01*
X155574000Y-104012000D01*
X155558718Y-103935171D01*
X157352799Y-103935171D01*
X157380770Y-104485448D01*
X157537540Y-104863923D01*
X157778483Y-104931912D01*
X158570395Y-104140000D01*
X158929605Y-104140000D01*
X159721517Y-104931912D01*
X159962460Y-104863923D01*
X160147201Y-104344829D01*
X160119230Y-103794552D01*
X159962460Y-103416077D01*
X159721517Y-103348088D01*
X158929605Y-104140000D01*
X158570395Y-104140000D01*
X157778483Y-103348088D01*
X157537540Y-103416077D01*
X157352799Y-103935171D01*
X155558718Y-103935171D01*
X155506329Y-103671794D01*
X155313618Y-103383382D01*
X155025206Y-103190671D01*
X154685000Y-103123000D01*
X154344794Y-103190671D01*
X154056382Y-103383382D01*
X153863671Y-103671794D01*
X153796000Y-104012000D01*
X153796000Y-104642973D01*
X153729329Y-104307794D01*
X153536618Y-104019382D01*
X152708618Y-103191382D01*
X152649514Y-103151890D01*
X152420206Y-102998671D01*
X152080000Y-102931000D01*
X151718322Y-102931000D01*
X151624090Y-102784559D01*
X151411890Y-102639569D01*
X151160000Y-102588560D01*
X150460000Y-102588560D01*
X150224683Y-102632838D01*
X150008559Y-102771910D01*
X149863569Y-102984110D01*
X149860919Y-102997197D01*
X149799000Y-102900972D01*
X149799000Y-102791236D01*
X150482236Y-102108000D01*
X152527000Y-102108000D01*
X152867206Y-102040329D01*
X153155618Y-101847618D01*
X154298618Y-100704618D01*
X154379212Y-100584000D01*
X154491329Y-100416206D01*
X154507035Y-100337247D01*
X154555317Y-100328162D01*
X154771441Y-100189090D01*
X154821052Y-100116481D01*
X154880671Y-100416206D01*
X154992788Y-100584000D01*
X155073382Y-100704618D01*
X156597382Y-102228618D01*
X156885794Y-102421329D01*
X157226000Y-102489000D01*
X157680470Y-102489000D01*
X157964436Y-102773461D01*
X158180979Y-102863377D01*
X158026077Y-102927540D01*
X157958088Y-103168483D01*
X158750000Y-103960395D01*
X159541912Y-103168483D01*
X159473923Y-102927540D01*
X159307379Y-102868268D01*
X159533515Y-102774831D01*
X159923461Y-102385564D01*
X160134759Y-101876702D01*
X160135240Y-101325715D01*
X159924831Y-100816485D01*
X159535564Y-100426539D01*
X159303130Y-100330024D01*
X159533515Y-100234831D01*
X159923461Y-99845564D01*
X160134759Y-99336702D01*
X160135240Y-98785715D01*
X159924831Y-98276485D01*
X159535564Y-97886539D01*
X159026702Y-97675241D01*
X158475715Y-97674760D01*
X157966485Y-97885169D01*
X157576539Y-98274436D01*
X157365241Y-98783298D01*
X157364760Y-99334285D01*
X157575169Y-99843515D01*
X157964436Y-100233461D01*
X158196870Y-100329976D01*
X157966485Y-100425169D01*
X157680155Y-100711000D01*
X157594236Y-100711000D01*
X156591000Y-99707764D01*
X156591000Y-99060000D01*
X156541746Y-98812382D01*
X156523330Y-98719795D01*
X156330618Y-98431382D01*
X155695618Y-97796382D01*
X155642291Y-97760750D01*
X155407206Y-97603671D01*
X155067000Y-97536000D01*
X149671024Y-97536000D01*
X149513720Y-97428519D01*
X149261830Y-97377510D01*
X148461730Y-97377510D01*
X148226413Y-97421788D01*
X148048923Y-97536000D01*
X146558000Y-97536000D01*
X146217795Y-97603670D01*
X145929382Y-97796382D01*
X144599764Y-99126000D01*
X144495943Y-99126000D01*
X144411890Y-99068569D01*
X144160000Y-99017560D01*
X142860000Y-99017560D01*
X142624683Y-99061838D01*
X142621000Y-99064208D01*
X142621000Y-98044000D01*
X142553329Y-97703794D01*
X142360618Y-97415382D01*
X142106618Y-97161382D01*
X141986596Y-97081186D01*
X141818206Y-96968671D01*
X141717508Y-96948641D01*
X149825710Y-96948641D01*
X149825710Y-97189250D01*
X149984460Y-97348000D01*
X150733760Y-97348000D01*
X150733760Y-96598700D01*
X150987760Y-96598700D01*
X150987760Y-97348000D01*
X151737060Y-97348000D01*
X151895810Y-97189250D01*
X151895810Y-96998691D01*
X152385000Y-96998691D01*
X152385000Y-97189250D01*
X152543750Y-97348000D01*
X153543000Y-97348000D01*
X153543000Y-96648750D01*
X153797000Y-96648750D01*
X153797000Y-97348000D01*
X154796250Y-97348000D01*
X154955000Y-97189250D01*
X154955000Y-96998691D01*
X154858327Y-96765302D01*
X154679699Y-96586673D01*
X154446310Y-96490000D01*
X153955750Y-96490000D01*
X153797000Y-96648750D01*
X153543000Y-96648750D01*
X153384250Y-96490000D01*
X152893690Y-96490000D01*
X152660301Y-96586673D01*
X152481673Y-96765302D01*
X152385000Y-96998691D01*
X151895810Y-96998691D01*
X151895810Y-96948641D01*
X151799137Y-96715252D01*
X151620509Y-96536623D01*
X151387120Y-96439950D01*
X151146510Y-96439950D01*
X150987760Y-96598700D01*
X150733760Y-96598700D01*
X150575010Y-96439950D01*
X150334400Y-96439950D01*
X150101011Y-96536623D01*
X149922383Y-96715252D01*
X149825710Y-96948641D01*
X141717508Y-96948641D01*
X141632440Y-96931720D01*
X141632440Y-96490000D01*
X141588162Y-96254683D01*
X141449090Y-96038559D01*
X141236890Y-95893569D01*
X140985000Y-95842560D01*
X139685000Y-95842560D01*
X139634937Y-95851980D01*
X137057698Y-95851980D01*
X136953530Y-95690099D01*
X136741330Y-95545109D01*
X136489440Y-95494100D01*
X135290560Y-95494100D01*
X135055243Y-95538378D01*
X134839119Y-95677450D01*
X134694129Y-95889650D01*
X134643120Y-96141540D01*
X134643120Y-97340420D01*
X134687398Y-97575737D01*
X134826470Y-97791861D01*
X134834659Y-97797456D01*
X134752233Y-97879882D01*
X134655560Y-98113271D01*
X134655560Y-98553270D01*
X134814310Y-98712020D01*
X135763000Y-98712020D01*
X135763000Y-98692020D01*
X136017000Y-98692020D01*
X136017000Y-98712020D01*
X136965690Y-98712020D01*
X137124440Y-98553270D01*
X137124440Y-98113271D01*
X137027767Y-97879882D01*
X136945555Y-97797669D01*
X137060132Y-97629980D01*
X138094784Y-97629980D01*
X137547382Y-98177382D01*
X137354671Y-98465794D01*
X137287000Y-98806000D01*
X137287000Y-100330000D01*
X137354671Y-100670206D01*
X137452412Y-100816485D01*
X137547382Y-100958618D01*
X137701000Y-101112236D01*
X137701000Y-101309011D01*
X137579683Y-101331838D01*
X137557675Y-101346000D01*
X137274236Y-101346000D01*
X136001696Y-100073460D01*
X136017002Y-100073460D01*
X136017002Y-99914712D01*
X136175750Y-100073460D01*
X136615750Y-100073460D01*
X136849139Y-99976787D01*
X137027767Y-99798158D01*
X137124440Y-99564769D01*
X137124440Y-99124770D01*
X136965690Y-98966020D01*
X136017000Y-98966020D01*
X136017000Y-98986020D01*
X135763000Y-98986020D01*
X135763000Y-98966020D01*
X134814310Y-98966020D01*
X134655560Y-99124770D01*
X134655560Y-99564769D01*
X134709504Y-99695000D01*
X132563025Y-99695000D01*
X132608327Y-99649698D01*
X132705000Y-99416309D01*
X132705000Y-99075750D01*
X132546250Y-98917000D01*
X131572000Y-98917000D01*
X131572000Y-98937000D01*
X131318000Y-98937000D01*
X131318000Y-98917000D01*
X130343750Y-98917000D01*
X130185000Y-99075750D01*
X130185000Y-99416309D01*
X130281673Y-99649698D01*
X130326975Y-99695000D01*
X128638236Y-99695000D01*
X130195928Y-98137308D01*
X130185000Y-98163691D01*
X130185000Y-98504250D01*
X130343750Y-98663000D01*
X131318000Y-98663000D01*
X131318000Y-98643000D01*
X131572000Y-98643000D01*
X131572000Y-98663000D01*
X132546250Y-98663000D01*
X132705000Y-98504250D01*
X132705000Y-98163691D01*
X132608327Y-97930302D01*
X132467090Y-97789064D01*
X132521441Y-97754090D01*
X132666431Y-97541890D01*
X132717440Y-97290000D01*
X132717440Y-96290000D01*
X132673162Y-96054683D01*
X132534090Y-95838559D01*
X132321890Y-95693569D01*
X132070000Y-95642560D01*
X130820000Y-95642560D01*
X130584683Y-95686838D01*
X130368559Y-95825910D01*
X130317252Y-95901000D01*
X130286000Y-95901000D01*
X129945794Y-95968671D01*
X129730746Y-96112362D01*
X129657382Y-96161382D01*
X127006382Y-98812382D01*
X126813671Y-99100794D01*
X126746000Y-99441000D01*
X126746000Y-99862560D01*
X126520000Y-99862560D01*
X126284683Y-99906838D01*
X126068559Y-100045910D01*
X125923569Y-100258110D01*
X125872560Y-100510000D01*
X125872560Y-100711000D01*
X122197334Y-100711000D01*
X122028186Y-100597979D01*
X121613135Y-100515420D01*
X120956865Y-100515420D01*
X120541814Y-100597979D01*
X120189951Y-100833086D01*
X119954844Y-101184949D01*
X119872285Y-101600000D01*
X119954844Y-102015051D01*
X120104641Y-102239238D01*
X119940019Y-102576065D01*
X120066932Y-102743000D01*
X121158000Y-102743000D01*
X121158000Y-102723000D01*
X121412000Y-102723000D01*
X121412000Y-102743000D01*
X122503068Y-102743000D01*
X122629981Y-102576065D01*
X122587428Y-102489000D01*
X125906241Y-102489000D01*
X125916838Y-102545317D01*
X126055910Y-102761441D01*
X126213973Y-102869441D01*
X126160301Y-102891673D01*
X125981673Y-103070302D01*
X125885000Y-103303691D01*
X125885000Y-104044250D01*
X126043750Y-104203000D01*
X127508000Y-104203000D01*
X127508000Y-104183000D01*
X127762000Y-104183000D01*
X127762000Y-104203000D01*
X129226250Y-104203000D01*
X129385000Y-104044250D01*
X129385000Y-103790750D01*
X131780000Y-103790750D01*
X131780000Y-103931310D01*
X131866442Y-104140000D01*
X131780000Y-104348690D01*
X131780000Y-104489250D01*
X131938750Y-104648000D01*
X133063000Y-104648000D01*
X133063000Y-103632000D01*
X133317000Y-103632000D01*
X133317000Y-104648000D01*
X134441250Y-104648000D01*
X134600000Y-104489250D01*
X134600000Y-104348690D01*
X134513558Y-104140000D01*
X134600000Y-103931310D01*
X134600000Y-103790750D01*
X134441250Y-103632000D01*
X133317000Y-103632000D01*
X133063000Y-103632000D01*
X131938750Y-103632000D01*
X131780000Y-103790750D01*
X129385000Y-103790750D01*
X129385000Y-103303691D01*
X129288327Y-103070302D01*
X129109699Y-102891673D01*
X129054344Y-102868744D01*
X129201441Y-102774090D01*
X129346431Y-102561890D01*
X129397440Y-102310000D01*
X129397440Y-101473000D01*
X131962131Y-101473000D01*
X131818569Y-101683110D01*
X131767560Y-101935000D01*
X131767560Y-102535000D01*
X131811838Y-102770317D01*
X131870178Y-102860980D01*
X131780000Y-103078690D01*
X131780000Y-103219250D01*
X131938750Y-103378000D01*
X133063000Y-103378000D01*
X133063000Y-103358000D01*
X133317000Y-103358000D01*
X133317000Y-103378000D01*
X134441250Y-103378000D01*
X134600000Y-103219250D01*
X134600000Y-103078690D01*
X134510194Y-102861878D01*
X134561431Y-102786890D01*
X134612440Y-102535000D01*
X134612440Y-101935000D01*
X134568162Y-101699683D01*
X134429090Y-101483559D01*
X134413636Y-101473000D01*
X134886764Y-101473000D01*
X136277382Y-102863618D01*
X136565795Y-103056330D01*
X136906000Y-103124000D01*
X137183963Y-103124000D01*
X137167560Y-103205000D01*
X137167560Y-103805000D01*
X137211838Y-104040317D01*
X137275678Y-104139528D01*
X137218569Y-104223110D01*
X137167560Y-104475000D01*
X137167560Y-105075000D01*
X137211838Y-105310317D01*
X137275678Y-105409528D01*
X137218569Y-105493110D01*
X137167560Y-105745000D01*
X137167560Y-106345000D01*
X137211838Y-106580317D01*
X137350910Y-106796441D01*
X137563110Y-106941431D01*
X137815000Y-106992440D01*
X138280204Y-106992440D01*
X138281382Y-106993618D01*
X138569794Y-107186329D01*
X138910000Y-107254000D01*
X141254057Y-107254000D01*
X141338110Y-107311431D01*
X141371490Y-107318191D01*
X141230301Y-107376673D01*
X141051673Y-107555302D01*
X140955000Y-107788691D01*
X140955000Y-107979250D01*
X141113750Y-108138000D01*
X142113000Y-108138000D01*
X142113000Y-108118000D01*
X142367000Y-108118000D01*
X142367000Y-108138000D01*
X143366250Y-108138000D01*
X143525000Y-107979250D01*
X143525000Y-107788691D01*
X143428327Y-107555302D01*
X143249699Y-107376673D01*
X143113713Y-107320346D01*
X143125317Y-107318162D01*
X143225028Y-107254000D01*
X143891000Y-107254000D01*
X143957000Y-107240872D01*
X143957000Y-107696000D01*
X144024671Y-108036206D01*
X144092688Y-108138000D01*
X144217382Y-108324618D01*
X144864560Y-108971796D01*
X144864560Y-109362000D01*
X144885634Y-109474000D01*
X136385236Y-109474000D01*
X135461986Y-108550750D01*
X140955000Y-108550750D01*
X140955000Y-108741309D01*
X141051673Y-108974698D01*
X141230301Y-109153327D01*
X141463690Y-109250000D01*
X141954250Y-109250000D01*
X142113000Y-109091250D01*
X142113000Y-108392000D01*
X142367000Y-108392000D01*
X142367000Y-109091250D01*
X142525750Y-109250000D01*
X143016310Y-109250000D01*
X143249699Y-109153327D01*
X143428327Y-108974698D01*
X143525000Y-108741309D01*
X143525000Y-108550750D01*
X143366250Y-108392000D01*
X142367000Y-108392000D01*
X142113000Y-108392000D01*
X141113750Y-108392000D01*
X140955000Y-108550750D01*
X135461986Y-108550750D01*
X133978618Y-107067382D01*
X133908014Y-107020206D01*
X133847842Y-106980000D01*
X134091309Y-106980000D01*
X134324698Y-106883327D01*
X134503327Y-106704699D01*
X134600000Y-106471310D01*
X134600000Y-106330750D01*
X134441250Y-106172000D01*
X133317000Y-106172000D01*
X133317000Y-106192000D01*
X133063000Y-106192000D01*
X133063000Y-106172000D01*
X131938750Y-106172000D01*
X131780000Y-106330750D01*
X131780000Y-106471310D01*
X131876673Y-106704699D01*
X131978975Y-106807000D01*
X127241236Y-106807000D01*
X126232447Y-105798211D01*
X126393690Y-105865000D01*
X127349250Y-105865000D01*
X127508000Y-105706250D01*
X127508000Y-104457000D01*
X127762000Y-104457000D01*
X127762000Y-105706250D01*
X127920750Y-105865000D01*
X128876310Y-105865000D01*
X129109699Y-105768327D01*
X129288327Y-105589698D01*
X129385000Y-105356309D01*
X129385000Y-105060750D01*
X131780000Y-105060750D01*
X131780000Y-105201310D01*
X131866442Y-105410000D01*
X131780000Y-105618690D01*
X131780000Y-105759250D01*
X131938750Y-105918000D01*
X133063000Y-105918000D01*
X133063000Y-104902000D01*
X133317000Y-104902000D01*
X133317000Y-105918000D01*
X134441250Y-105918000D01*
X134600000Y-105759250D01*
X134600000Y-105618690D01*
X134513558Y-105410000D01*
X134600000Y-105201310D01*
X134600000Y-105060750D01*
X134441250Y-104902000D01*
X133317000Y-104902000D01*
X133063000Y-104902000D01*
X131938750Y-104902000D01*
X131780000Y-105060750D01*
X129385000Y-105060750D01*
X129385000Y-104615750D01*
X129226250Y-104457000D01*
X127762000Y-104457000D01*
X127508000Y-104457000D01*
X126043750Y-104457000D01*
X125885000Y-104615750D01*
X125885000Y-105356309D01*
X125951790Y-105517554D01*
X123945618Y-103511382D01*
X123875014Y-103464206D01*
X123657206Y-103318671D01*
X123317000Y-103251000D01*
X122587428Y-103251000D01*
X122629981Y-103163935D01*
X122503068Y-102997000D01*
X121412000Y-102997000D01*
X121412000Y-103017000D01*
X121158000Y-103017000D01*
X121158000Y-102997000D01*
X120066932Y-102997000D01*
X119940019Y-103163935D01*
X120104641Y-103500762D01*
X119954844Y-103724949D01*
X119872285Y-104140000D01*
X119954844Y-104555051D01*
X120189951Y-104906914D01*
X120541814Y-105142021D01*
X120956865Y-105224580D01*
X121613135Y-105224580D01*
X122028186Y-105142021D01*
X122197334Y-105029000D01*
X122948764Y-105029000D01*
X126244382Y-108324618D01*
X126532794Y-108517329D01*
X126873000Y-108585000D01*
X132981764Y-108585000D01*
X134938764Y-110542000D01*
X118566000Y-110542000D01*
X118566000Y-94182000D01*
X160909000Y-94182000D01*
X160909000Y-110542000D01*
X160909000Y-110542000D01*
G37*
X160909000Y-110542000D02*
X148144236Y-110542000D01*
X148390618Y-110295618D01*
X148583330Y-110007205D01*
X148642318Y-109710650D01*
X148708431Y-109613890D01*
X148759440Y-109362000D01*
X148759440Y-108062000D01*
X148715162Y-107826683D01*
X148670037Y-107756556D01*
X148676206Y-107755329D01*
X148964618Y-107562618D01*
X149538618Y-106988618D01*
X149731330Y-106700205D01*
X149799000Y-106360000D01*
X149799000Y-104871943D01*
X149856431Y-104787890D01*
X149859081Y-104774803D01*
X149995910Y-104987441D01*
X150208110Y-105132431D01*
X150460000Y-105183440D01*
X150488410Y-105183440D01*
X150383559Y-105250910D01*
X150238569Y-105463110D01*
X150187560Y-105715000D01*
X150187560Y-106915000D01*
X150231838Y-107150317D01*
X150338759Y-107316477D01*
X150238569Y-107463110D01*
X150187560Y-107715000D01*
X150187560Y-108915000D01*
X150231838Y-109150317D01*
X150370910Y-109366441D01*
X150583110Y-109511431D01*
X150835000Y-109562440D01*
X152035000Y-109562440D01*
X152270317Y-109518162D01*
X152486441Y-109379090D01*
X152631431Y-109166890D01*
X152638936Y-109129827D01*
X152917618Y-108943618D01*
X153401955Y-108459281D01*
X153470910Y-108566441D01*
X153683110Y-108711431D01*
X153935000Y-108762440D01*
X155435000Y-108762440D01*
X155670317Y-108718162D01*
X155886441Y-108579090D01*
X156031431Y-108366890D01*
X156064417Y-108204000D01*
X158115000Y-108204000D01*
X158455206Y-108136329D01*
X158543339Y-108077440D01*
X159500000Y-108077440D01*
X159735317Y-108033162D01*
X159951441Y-107894090D01*
X160096431Y-107681890D01*
X160147440Y-107430000D01*
X160147440Y-105930000D01*
X160103162Y-105694683D01*
X159964090Y-105478559D01*
X159751890Y-105333569D01*
X159500000Y-105282560D01*
X159493647Y-105282560D01*
X159541912Y-105111517D01*
X158750000Y-104319605D01*
X157958088Y-105111517D01*
X158006353Y-105282560D01*
X158000000Y-105282560D01*
X157764683Y-105326838D01*
X157548559Y-105465910D01*
X157403569Y-105678110D01*
X157352560Y-105930000D01*
X157352560Y-106426000D01*
X156065693Y-106426000D01*
X156038162Y-106279683D01*
X155899090Y-106063559D01*
X155686890Y-105918569D01*
X155574000Y-105895708D01*
X155574000Y-104012000D01*
X155558718Y-103935171D01*
X157352799Y-103935171D01*
X157380770Y-104485448D01*
X157537540Y-104863923D01*
X157778483Y-104931912D01*
X158570395Y-104140000D01*
X158929605Y-104140000D01*
X159721517Y-104931912D01*
X159962460Y-104863923D01*
X160147201Y-104344829D01*
X160119230Y-103794552D01*
X159962460Y-103416077D01*
X159721517Y-103348088D01*
X158929605Y-104140000D01*
X158570395Y-104140000D01*
X157778483Y-103348088D01*
X157537540Y-103416077D01*
X157352799Y-103935171D01*
X155558718Y-103935171D01*
X155506329Y-103671794D01*
X155313618Y-103383382D01*
X155025206Y-103190671D01*
X154685000Y-103123000D01*
X154344794Y-103190671D01*
X154056382Y-103383382D01*
X153863671Y-103671794D01*
X153796000Y-104012000D01*
X153796000Y-104642973D01*
X153729329Y-104307794D01*
X153536618Y-104019382D01*
X152708618Y-103191382D01*
X152649514Y-103151890D01*
X152420206Y-102998671D01*
X152080000Y-102931000D01*
X151718322Y-102931000D01*
X151624090Y-102784559D01*
X151411890Y-102639569D01*
X151160000Y-102588560D01*
X150460000Y-102588560D01*
X150224683Y-102632838D01*
X150008559Y-102771910D01*
X149863569Y-102984110D01*
X149860919Y-102997197D01*
X149799000Y-102900972D01*
X149799000Y-102791236D01*
X150482236Y-102108000D01*
X152527000Y-102108000D01*
X152867206Y-102040329D01*
X153155618Y-101847618D01*
X154298618Y-100704618D01*
X154379212Y-100584000D01*
X154491329Y-100416206D01*
X154507035Y-100337247D01*
X154555317Y-100328162D01*
X154771441Y-100189090D01*
X154821052Y-100116481D01*
X154880671Y-100416206D01*
X154992788Y-100584000D01*
X155073382Y-100704618D01*
X156597382Y-102228618D01*
X156885794Y-102421329D01*
X157226000Y-102489000D01*
X157680470Y-102489000D01*
X157964436Y-102773461D01*
X158180979Y-102863377D01*
X158026077Y-102927540D01*
X157958088Y-103168483D01*
X158750000Y-103960395D01*
X159541912Y-103168483D01*
X159473923Y-102927540D01*
X159307379Y-102868268D01*
X159533515Y-102774831D01*
X159923461Y-102385564D01*
X160134759Y-101876702D01*
X160135240Y-101325715D01*
X159924831Y-100816485D01*
X159535564Y-100426539D01*
X159303130Y-100330024D01*
X159533515Y-100234831D01*
X159923461Y-99845564D01*
X160134759Y-99336702D01*
X160135240Y-98785715D01*
X159924831Y-98276485D01*
X159535564Y-97886539D01*
X159026702Y-97675241D01*
X158475715Y-97674760D01*
X157966485Y-97885169D01*
X157576539Y-98274436D01*
X157365241Y-98783298D01*
X157364760Y-99334285D01*
X157575169Y-99843515D01*
X157964436Y-100233461D01*
X158196870Y-100329976D01*
X157966485Y-100425169D01*
X157680155Y-100711000D01*
X157594236Y-100711000D01*
X156591000Y-99707764D01*
X156591000Y-99060000D01*
X156541746Y-98812382D01*
X156523330Y-98719795D01*
X156330618Y-98431382D01*
X155695618Y-97796382D01*
X155642291Y-97760750D01*
X155407206Y-97603671D01*
X155067000Y-97536000D01*
X149671024Y-97536000D01*
X149513720Y-97428519D01*
X149261830Y-97377510D01*
X148461730Y-97377510D01*
X148226413Y-97421788D01*
X148048923Y-97536000D01*
X146558000Y-97536000D01*
X146217795Y-97603670D01*
X145929382Y-97796382D01*
X144599764Y-99126000D01*
X144495943Y-99126000D01*
X144411890Y-99068569D01*
X144160000Y-99017560D01*
X142860000Y-99017560D01*
X142624683Y-99061838D01*
X142621000Y-99064208D01*
X142621000Y-98044000D01*
X142553329Y-97703794D01*
X142360618Y-97415382D01*
X142106618Y-97161382D01*
X141986596Y-97081186D01*
X141818206Y-96968671D01*
X141717508Y-96948641D01*
X149825710Y-96948641D01*
X149825710Y-97189250D01*
X149984460Y-97348000D01*
X150733760Y-97348000D01*
X150733760Y-96598700D01*
X150987760Y-96598700D01*
X150987760Y-97348000D01*
X151737060Y-97348000D01*
X151895810Y-97189250D01*
X151895810Y-96998691D01*
X152385000Y-96998691D01*
X152385000Y-97189250D01*
X152543750Y-97348000D01*
X153543000Y-97348000D01*
X153543000Y-96648750D01*
X153797000Y-96648750D01*
X153797000Y-97348000D01*
X154796250Y-97348000D01*
X154955000Y-97189250D01*
X154955000Y-96998691D01*
X154858327Y-96765302D01*
X154679699Y-96586673D01*
X154446310Y-96490000D01*
X153955750Y-96490000D01*
X153797000Y-96648750D01*
X153543000Y-96648750D01*
X153384250Y-96490000D01*
X152893690Y-96490000D01*
X152660301Y-96586673D01*
X152481673Y-96765302D01*
X152385000Y-96998691D01*
X151895810Y-96998691D01*
X151895810Y-96948641D01*
X151799137Y-96715252D01*
X151620509Y-96536623D01*
X151387120Y-96439950D01*
X151146510Y-96439950D01*
X150987760Y-96598700D01*
X150733760Y-96598700D01*
X150575010Y-96439950D01*
X150334400Y-96439950D01*
X150101011Y-96536623D01*
X149922383Y-96715252D01*
X149825710Y-96948641D01*
X141717508Y-96948641D01*
X141632440Y-96931720D01*
X141632440Y-96490000D01*
X141588162Y-96254683D01*
X141449090Y-96038559D01*
X141236890Y-95893569D01*
X140985000Y-95842560D01*
X139685000Y-95842560D01*
X139634937Y-95851980D01*
X137057698Y-95851980D01*
X136953530Y-95690099D01*
X136741330Y-95545109D01*
X136489440Y-95494100D01*
X135290560Y-95494100D01*
X135055243Y-95538378D01*
X134839119Y-95677450D01*
X134694129Y-95889650D01*
X134643120Y-96141540D01*
X134643120Y-97340420D01*
X134687398Y-97575737D01*
X134826470Y-97791861D01*
X134834659Y-97797456D01*
X134752233Y-97879882D01*
X134655560Y-98113271D01*
X134655560Y-98553270D01*
X134814310Y-98712020D01*
X135763000Y-98712020D01*
X135763000Y-98692020D01*
X136017000Y-98692020D01*
X136017000Y-98712020D01*
X136965690Y-98712020D01*
X137124440Y-98553270D01*
X137124440Y-98113271D01*
X137027767Y-97879882D01*
X136945555Y-97797669D01*
X137060132Y-97629980D01*
X138094784Y-97629980D01*
X137547382Y-98177382D01*
X137354671Y-98465794D01*
X137287000Y-98806000D01*
X137287000Y-100330000D01*
X137354671Y-100670206D01*
X137452412Y-100816485D01*
X137547382Y-100958618D01*
X137701000Y-101112236D01*
X137701000Y-101309011D01*
X137579683Y-101331838D01*
X137557675Y-101346000D01*
X137274236Y-101346000D01*
X136001696Y-100073460D01*
X136017002Y-100073460D01*
X136017002Y-99914712D01*
X136175750Y-100073460D01*
X136615750Y-100073460D01*
X136849139Y-99976787D01*
X137027767Y-99798158D01*
X137124440Y-99564769D01*
X137124440Y-99124770D01*
X136965690Y-98966020D01*
X136017000Y-98966020D01*
X136017000Y-98986020D01*
X135763000Y-98986020D01*
X135763000Y-98966020D01*
X134814310Y-98966020D01*
X134655560Y-99124770D01*
X134655560Y-99564769D01*
X134709504Y-99695000D01*
X132563025Y-99695000D01*
X132608327Y-99649698D01*
X132705000Y-99416309D01*
X132705000Y-99075750D01*
X132546250Y-98917000D01*
X131572000Y-98917000D01*
X131572000Y-98937000D01*
X131318000Y-98937000D01*
X131318000Y-98917000D01*
X130343750Y-98917000D01*
X130185000Y-99075750D01*
X130185000Y-99416309D01*
X130281673Y-99649698D01*
X130326975Y-99695000D01*
X128638236Y-99695000D01*
X130195928Y-98137308D01*
X130185000Y-98163691D01*
X130185000Y-98504250D01*
X130343750Y-98663000D01*
X131318000Y-98663000D01*
X131318000Y-98643000D01*
X131572000Y-98643000D01*
X131572000Y-98663000D01*
X132546250Y-98663000D01*
X132705000Y-98504250D01*
X132705000Y-98163691D01*
X132608327Y-97930302D01*
X132467090Y-97789064D01*
X132521441Y-97754090D01*
X132666431Y-97541890D01*
X132717440Y-97290000D01*
X132717440Y-96290000D01*
X132673162Y-96054683D01*
X132534090Y-95838559D01*
X132321890Y-95693569D01*
X132070000Y-95642560D01*
X130820000Y-95642560D01*
X130584683Y-95686838D01*
X130368559Y-95825910D01*
X130317252Y-95901000D01*
X130286000Y-95901000D01*
X129945794Y-95968671D01*
X129730746Y-96112362D01*
X129657382Y-96161382D01*
X127006382Y-98812382D01*
X126813671Y-99100794D01*
X126746000Y-99441000D01*
X126746000Y-99862560D01*
X126520000Y-99862560D01*
X126284683Y-99906838D01*
X126068559Y-100045910D01*
X125923569Y-100258110D01*
X125872560Y-100510000D01*
X125872560Y-100711000D01*
X122197334Y-100711000D01*
X122028186Y-100597979D01*
X121613135Y-100515420D01*
X120956865Y-100515420D01*
X120541814Y-100597979D01*
X120189951Y-100833086D01*
X119954844Y-101184949D01*
X119872285Y-101600000D01*
X119954844Y-102015051D01*
X120104641Y-102239238D01*
X119940019Y-102576065D01*
X120066932Y-102743000D01*
X121158000Y-102743000D01*
X121158000Y-102723000D01*
X121412000Y-102723000D01*
X121412000Y-102743000D01*
X122503068Y-102743000D01*
X122629981Y-102576065D01*
X122587428Y-102489000D01*
X125906241Y-102489000D01*
X125916838Y-102545317D01*
X126055910Y-102761441D01*
X126213973Y-102869441D01*
X126160301Y-102891673D01*
X125981673Y-103070302D01*
X125885000Y-103303691D01*
X125885000Y-104044250D01*
X126043750Y-104203000D01*
X127508000Y-104203000D01*
X127508000Y-104183000D01*
X127762000Y-104183000D01*
X127762000Y-104203000D01*
X129226250Y-104203000D01*
X129385000Y-104044250D01*
X129385000Y-103790750D01*
X131780000Y-103790750D01*
X131780000Y-103931310D01*
X131866442Y-104140000D01*
X131780000Y-104348690D01*
X131780000Y-104489250D01*
X131938750Y-104648000D01*
X133063000Y-104648000D01*
X133063000Y-103632000D01*
X133317000Y-103632000D01*
X133317000Y-104648000D01*
X134441250Y-104648000D01*
X134600000Y-104489250D01*
X134600000Y-104348690D01*
X134513558Y-104140000D01*
X134600000Y-103931310D01*
X134600000Y-103790750D01*
X134441250Y-103632000D01*
X133317000Y-103632000D01*
X133063000Y-103632000D01*
X131938750Y-103632000D01*
X131780000Y-103790750D01*
X129385000Y-103790750D01*
X129385000Y-103303691D01*
X129288327Y-103070302D01*
X129109699Y-102891673D01*
X129054344Y-102868744D01*
X129201441Y-102774090D01*
X129346431Y-102561890D01*
X129397440Y-102310000D01*
X129397440Y-101473000D01*
X131962131Y-101473000D01*
X131818569Y-101683110D01*
X131767560Y-101935000D01*
X131767560Y-102535000D01*
X131811838Y-102770317D01*
X131870178Y-102860980D01*
X131780000Y-103078690D01*
X131780000Y-103219250D01*
X131938750Y-103378000D01*
X133063000Y-103378000D01*
X133063000Y-103358000D01*
X133317000Y-103358000D01*
X133317000Y-103378000D01*
X134441250Y-103378000D01*
X134600000Y-103219250D01*
X134600000Y-103078690D01*
X134510194Y-102861878D01*
X134561431Y-102786890D01*
X134612440Y-102535000D01*
X134612440Y-101935000D01*
X134568162Y-101699683D01*
X134429090Y-101483559D01*
X134413636Y-101473000D01*
X134886764Y-101473000D01*
X136277382Y-102863618D01*
X136565795Y-103056330D01*
X136906000Y-103124000D01*
X137183963Y-103124000D01*
X137167560Y-103205000D01*
X137167560Y-103805000D01*
X137211838Y-104040317D01*
X137275678Y-104139528D01*
X137218569Y-104223110D01*
X137167560Y-104475000D01*
X137167560Y-105075000D01*
X137211838Y-105310317D01*
X137275678Y-105409528D01*
X137218569Y-105493110D01*
X137167560Y-105745000D01*
X137167560Y-106345000D01*
X137211838Y-106580317D01*
X137350910Y-106796441D01*
X137563110Y-106941431D01*
X137815000Y-106992440D01*
X138280204Y-106992440D01*
X138281382Y-106993618D01*
X138569794Y-107186329D01*
X138910000Y-107254000D01*
X141254057Y-107254000D01*
X141338110Y-107311431D01*
X141371490Y-107318191D01*
X141230301Y-107376673D01*
X141051673Y-107555302D01*
X140955000Y-107788691D01*
X140955000Y-107979250D01*
X141113750Y-108138000D01*
X142113000Y-108138000D01*
X142113000Y-108118000D01*
X142367000Y-108118000D01*
X142367000Y-108138000D01*
X143366250Y-108138000D01*
X143525000Y-107979250D01*
X143525000Y-107788691D01*
X143428327Y-107555302D01*
X143249699Y-107376673D01*
X143113713Y-107320346D01*
X143125317Y-107318162D01*
X143225028Y-107254000D01*
X143891000Y-107254000D01*
X143957000Y-107240872D01*
X143957000Y-107696000D01*
X144024671Y-108036206D01*
X144092688Y-108138000D01*
X144217382Y-108324618D01*
X144864560Y-108971796D01*
X144864560Y-109362000D01*
X144885634Y-109474000D01*
X136385236Y-109474000D01*
X135461986Y-108550750D01*
X140955000Y-108550750D01*
X140955000Y-108741309D01*
X141051673Y-108974698D01*
X141230301Y-109153327D01*
X141463690Y-109250000D01*
X141954250Y-109250000D01*
X142113000Y-109091250D01*
X142113000Y-108392000D01*
X142367000Y-108392000D01*
X142367000Y-109091250D01*
X142525750Y-109250000D01*
X143016310Y-109250000D01*
X143249699Y-109153327D01*
X143428327Y-108974698D01*
X143525000Y-108741309D01*
X143525000Y-108550750D01*
X143366250Y-108392000D01*
X142367000Y-108392000D01*
X142113000Y-108392000D01*
X141113750Y-108392000D01*
X140955000Y-108550750D01*
X135461986Y-108550750D01*
X133978618Y-107067382D01*
X133908014Y-107020206D01*
X133847842Y-106980000D01*
X134091309Y-106980000D01*
X134324698Y-106883327D01*
X134503327Y-106704699D01*
X134600000Y-106471310D01*
X134600000Y-106330750D01*
X134441250Y-106172000D01*
X133317000Y-106172000D01*
X133317000Y-106192000D01*
X133063000Y-106192000D01*
X133063000Y-106172000D01*
X131938750Y-106172000D01*
X131780000Y-106330750D01*
X131780000Y-106471310D01*
X131876673Y-106704699D01*
X131978975Y-106807000D01*
X127241236Y-106807000D01*
X126232447Y-105798211D01*
X126393690Y-105865000D01*
X127349250Y-105865000D01*
X127508000Y-105706250D01*
X127508000Y-104457000D01*
X127762000Y-104457000D01*
X127762000Y-105706250D01*
X127920750Y-105865000D01*
X128876310Y-105865000D01*
X129109699Y-105768327D01*
X129288327Y-105589698D01*
X129385000Y-105356309D01*
X129385000Y-105060750D01*
X131780000Y-105060750D01*
X131780000Y-105201310D01*
X131866442Y-105410000D01*
X131780000Y-105618690D01*
X131780000Y-105759250D01*
X131938750Y-105918000D01*
X133063000Y-105918000D01*
X133063000Y-104902000D01*
X133317000Y-104902000D01*
X133317000Y-105918000D01*
X134441250Y-105918000D01*
X134600000Y-105759250D01*
X134600000Y-105618690D01*
X134513558Y-105410000D01*
X134600000Y-105201310D01*
X134600000Y-105060750D01*
X134441250Y-104902000D01*
X133317000Y-104902000D01*
X133063000Y-104902000D01*
X131938750Y-104902000D01*
X131780000Y-105060750D01*
X129385000Y-105060750D01*
X129385000Y-104615750D01*
X129226250Y-104457000D01*
X127762000Y-104457000D01*
X127508000Y-104457000D01*
X126043750Y-104457000D01*
X125885000Y-104615750D01*
X125885000Y-105356309D01*
X125951790Y-105517554D01*
X123945618Y-103511382D01*
X123875014Y-103464206D01*
X123657206Y-103318671D01*
X123317000Y-103251000D01*
X122587428Y-103251000D01*
X122629981Y-103163935D01*
X122503068Y-102997000D01*
X121412000Y-102997000D01*
X121412000Y-103017000D01*
X121158000Y-103017000D01*
X121158000Y-102997000D01*
X120066932Y-102997000D01*
X119940019Y-103163935D01*
X120104641Y-103500762D01*
X119954844Y-103724949D01*
X119872285Y-104140000D01*
X119954844Y-104555051D01*
X120189951Y-104906914D01*
X120541814Y-105142021D01*
X120956865Y-105224580D01*
X121613135Y-105224580D01*
X122028186Y-105142021D01*
X122197334Y-105029000D01*
X122948764Y-105029000D01*
X126244382Y-108324618D01*
X126532794Y-108517329D01*
X126873000Y-108585000D01*
X132981764Y-108585000D01*
X134938764Y-110542000D01*
X118566000Y-110542000D01*
X118566000Y-94182000D01*
X160909000Y-94182000D01*
X160909000Y-110542000D01*
M02*
