%FSLAX45Y45*%
G04 Gerber Fmt 4.5, Leading zero omitted, Abs format (unit mm)*
G04 Created by KiCad (PCBNEW 4.0.1-stable) date Tuesday, March 29, 2016 'AMt' 12:53:55 AM*
%MOMM*%
G01*
G04 APERTURE LIST*
%ADD10C,0.127000*%
%ADD11C,0.150000*%
%ADD12C,0.200000*%
%ADD13C,0.300000*%
G04 APERTURE END LIST*
D10*
D11*
X16205200Y-9347200D02*
X16205200Y-9448800D01*
X11785600Y-9347200D02*
X16205200Y-9347200D01*
X11785600Y-11125200D02*
X11785600Y-9347200D01*
X16205200Y-11125200D02*
X11785600Y-11125200D01*
X16205200Y-9448800D02*
X16205200Y-11125200D01*
D12*
X12098500Y-10130000D02*
X12158500Y-10190000D01*
X12158500Y-10130000D02*
X12098500Y-10190000D01*
X12098500Y-10257000D02*
X12158500Y-10317000D01*
X12158500Y-10257000D02*
X12098500Y-10317000D01*
X12098500Y-10384000D02*
X12158500Y-10444000D01*
X12158500Y-10384000D02*
X12098500Y-10444000D01*
X15925000Y-9906000D02*
G75*
G03X15925000Y-9906000I-50000J0D01*
G01*
X15925000Y-10160000D02*
G75*
G03X15925000Y-10160000I-50000J0D01*
G01*
X15925000Y-10414000D02*
G75*
G03X15925000Y-10414000I-50000J0D01*
G01*
X15925000Y-10668000D02*
G75*
G03X15925000Y-10668000I-50000J0D01*
G01*
D13*
X12049528Y-11598414D02*
X12049528Y-11298414D01*
X12120957Y-11298414D01*
X12163814Y-11312700D01*
X12192386Y-11341271D01*
X12206671Y-11369843D01*
X12220957Y-11426986D01*
X12220957Y-11469843D01*
X12206671Y-11526986D01*
X12192386Y-11555557D01*
X12163814Y-11584129D01*
X12120957Y-11598414D01*
X12049528Y-11598414D01*
X12349528Y-11598414D02*
X12349528Y-11398414D01*
X12349528Y-11455557D02*
X12363814Y-11426986D01*
X12378100Y-11412700D01*
X12406671Y-11398414D01*
X12435243Y-11398414D01*
X12535243Y-11598414D02*
X12535243Y-11398414D01*
X12535243Y-11298414D02*
X12520957Y-11312700D01*
X12535243Y-11326986D01*
X12549528Y-11312700D01*
X12535243Y-11298414D01*
X12535243Y-11326986D01*
X12720957Y-11598414D02*
X12692386Y-11584129D01*
X12678100Y-11555557D01*
X12678100Y-11298414D01*
X12878100Y-11598414D02*
X12849528Y-11584129D01*
X12835243Y-11555557D01*
X12835243Y-11298414D01*
X13220957Y-11598414D02*
X13220957Y-11298414D01*
X13320957Y-11512700D01*
X13420957Y-11298414D01*
X13420957Y-11598414D01*
X13692386Y-11598414D02*
X13692386Y-11441271D01*
X13678100Y-11412700D01*
X13649528Y-11398414D01*
X13592386Y-11398414D01*
X13563814Y-11412700D01*
X13692386Y-11584129D02*
X13663814Y-11598414D01*
X13592386Y-11598414D01*
X13563814Y-11584129D01*
X13549528Y-11555557D01*
X13549528Y-11526986D01*
X13563814Y-11498414D01*
X13592386Y-11484129D01*
X13663814Y-11484129D01*
X13692386Y-11469843D01*
X13835243Y-11398414D02*
X13835243Y-11698414D01*
X13835243Y-11412700D02*
X13863814Y-11398414D01*
X13920957Y-11398414D01*
X13949528Y-11412700D01*
X13963814Y-11426986D01*
X13978100Y-11455557D01*
X13978100Y-11541271D01*
X13963814Y-11569843D01*
X13949528Y-11584129D01*
X13920957Y-11598414D01*
X13863814Y-11598414D01*
X13835243Y-11584129D01*
X14106671Y-11569843D02*
X14120957Y-11584129D01*
X14106671Y-11598414D01*
X14092386Y-11584129D01*
X14106671Y-11569843D01*
X14106671Y-11598414D01*
X14106671Y-11412700D02*
X14120957Y-11426986D01*
X14106671Y-11441271D01*
X14092386Y-11426986D01*
X14106671Y-11412700D01*
X14106671Y-11441271D01*
X11718100Y-12062700D02*
X11778100Y-12122700D01*
X11778100Y-12062700D02*
X11718100Y-12122700D01*
X12106671Y-11928414D02*
X12135243Y-11928414D01*
X12163814Y-11942700D01*
X12178100Y-11956986D01*
X12192386Y-11985557D01*
X12206671Y-12042700D01*
X12206671Y-12114129D01*
X12192386Y-12171271D01*
X12178100Y-12199843D01*
X12163814Y-12214129D01*
X12135243Y-12228414D01*
X12106671Y-12228414D01*
X12078100Y-12214129D01*
X12063814Y-12199843D01*
X12049528Y-12171271D01*
X12035243Y-12114129D01*
X12035243Y-12042700D01*
X12049528Y-11985557D01*
X12063814Y-11956986D01*
X12078100Y-11942700D01*
X12106671Y-11928414D01*
X12335243Y-12199843D02*
X12349528Y-12214129D01*
X12335243Y-12228414D01*
X12320957Y-12214129D01*
X12335243Y-12199843D01*
X12335243Y-12228414D01*
X12606671Y-11928414D02*
X12549528Y-11928414D01*
X12520957Y-11942700D01*
X12506671Y-11956986D01*
X12478100Y-11999843D01*
X12463814Y-12056986D01*
X12463814Y-12171271D01*
X12478100Y-12199843D01*
X12492386Y-12214129D01*
X12520957Y-12228414D01*
X12578100Y-12228414D01*
X12606671Y-12214129D01*
X12620957Y-12199843D01*
X12635243Y-12171271D01*
X12635243Y-12099843D01*
X12620957Y-12071271D01*
X12606671Y-12056986D01*
X12578100Y-12042700D01*
X12520957Y-12042700D01*
X12492386Y-12056986D01*
X12478100Y-12071271D01*
X12463814Y-12099843D01*
X12820957Y-11928414D02*
X12849528Y-11928414D01*
X12878100Y-11942700D01*
X12892386Y-11956986D01*
X12906671Y-11985557D01*
X12920957Y-12042700D01*
X12920957Y-12114129D01*
X12906671Y-12171271D01*
X12892386Y-12199843D01*
X12878100Y-12214129D01*
X12849528Y-12228414D01*
X12820957Y-12228414D01*
X12792386Y-12214129D01*
X12778100Y-12199843D01*
X12763814Y-12171271D01*
X12749528Y-12114129D01*
X12749528Y-12042700D01*
X12763814Y-11985557D01*
X12778100Y-11956986D01*
X12792386Y-11942700D01*
X12820957Y-11928414D01*
X13049528Y-12228414D02*
X13049528Y-12028414D01*
X13049528Y-12056986D02*
X13063814Y-12042700D01*
X13092386Y-12028414D01*
X13135243Y-12028414D01*
X13163814Y-12042700D01*
X13178100Y-12071271D01*
X13178100Y-12228414D01*
X13178100Y-12071271D02*
X13192386Y-12042700D01*
X13220957Y-12028414D01*
X13263814Y-12028414D01*
X13292386Y-12042700D01*
X13306671Y-12071271D01*
X13306671Y-12228414D01*
X13449528Y-12228414D02*
X13449528Y-12028414D01*
X13449528Y-12056986D02*
X13463814Y-12042700D01*
X13492386Y-12028414D01*
X13535243Y-12028414D01*
X13563814Y-12042700D01*
X13578100Y-12071271D01*
X13578100Y-12228414D01*
X13578100Y-12071271D02*
X13592386Y-12042700D01*
X13620957Y-12028414D01*
X13663814Y-12028414D01*
X13692386Y-12042700D01*
X13706671Y-12071271D01*
X13706671Y-12228414D01*
X14292386Y-11914129D02*
X14035243Y-12299843D01*
X14678100Y-11928414D02*
X14706671Y-11928414D01*
X14735243Y-11942700D01*
X14749528Y-11956986D01*
X14763814Y-11985557D01*
X14778100Y-12042700D01*
X14778100Y-12114129D01*
X14763814Y-12171271D01*
X14749528Y-12199843D01*
X14735243Y-12214129D01*
X14706671Y-12228414D01*
X14678100Y-12228414D01*
X14649528Y-12214129D01*
X14635243Y-12199843D01*
X14620957Y-12171271D01*
X14606671Y-12114129D01*
X14606671Y-12042700D01*
X14620957Y-11985557D01*
X14635243Y-11956986D01*
X14649528Y-11942700D01*
X14678100Y-11928414D01*
X14906671Y-12199843D02*
X14920957Y-12214129D01*
X14906671Y-12228414D01*
X14892386Y-12214129D01*
X14906671Y-12199843D01*
X14906671Y-12228414D01*
X15106671Y-11928414D02*
X15135243Y-11928414D01*
X15163814Y-11942700D01*
X15178100Y-11956986D01*
X15192385Y-11985557D01*
X15206671Y-12042700D01*
X15206671Y-12114129D01*
X15192385Y-12171271D01*
X15178100Y-12199843D01*
X15163814Y-12214129D01*
X15135243Y-12228414D01*
X15106671Y-12228414D01*
X15078100Y-12214129D01*
X15063814Y-12199843D01*
X15049528Y-12171271D01*
X15035243Y-12114129D01*
X15035243Y-12042700D01*
X15049528Y-11985557D01*
X15063814Y-11956986D01*
X15078100Y-11942700D01*
X15106671Y-11928414D01*
X15320957Y-11956986D02*
X15335243Y-11942700D01*
X15363814Y-11928414D01*
X15435243Y-11928414D01*
X15463814Y-11942700D01*
X15478100Y-11956986D01*
X15492385Y-11985557D01*
X15492385Y-12014129D01*
X15478100Y-12056986D01*
X15306671Y-12228414D01*
X15492385Y-12228414D01*
X15749528Y-12028414D02*
X15749528Y-12228414D01*
X15678100Y-11914129D02*
X15606671Y-12128414D01*
X15792385Y-12128414D01*
X15892386Y-11928414D02*
X15892386Y-11985557D01*
X16006671Y-11928414D02*
X16006671Y-11985557D01*
X16449528Y-12342700D02*
X16435243Y-12328414D01*
X16406671Y-12285557D01*
X16392385Y-12256986D01*
X16378100Y-12214129D01*
X16363814Y-12142700D01*
X16363814Y-12085557D01*
X16378100Y-12014129D01*
X16392385Y-11971271D01*
X16406671Y-11942700D01*
X16435243Y-11899843D01*
X16449528Y-11885557D01*
X16535243Y-11928414D02*
X16720957Y-11928414D01*
X16620957Y-12042700D01*
X16663814Y-12042700D01*
X16692385Y-12056986D01*
X16706671Y-12071271D01*
X16720957Y-12099843D01*
X16720957Y-12171271D01*
X16706671Y-12199843D01*
X16692385Y-12214129D01*
X16663814Y-12228414D01*
X16578100Y-12228414D01*
X16549528Y-12214129D01*
X16535243Y-12199843D01*
X17078100Y-12228414D02*
X17078100Y-11928414D01*
X17206671Y-12228414D02*
X17206671Y-12071271D01*
X17192386Y-12042700D01*
X17163814Y-12028414D01*
X17120957Y-12028414D01*
X17092386Y-12042700D01*
X17078100Y-12056986D01*
X17392386Y-12228414D02*
X17363814Y-12214129D01*
X17349528Y-12199843D01*
X17335243Y-12171271D01*
X17335243Y-12085557D01*
X17349528Y-12056986D01*
X17363814Y-12042700D01*
X17392386Y-12028414D01*
X17435243Y-12028414D01*
X17463814Y-12042700D01*
X17478100Y-12056986D01*
X17492386Y-12085557D01*
X17492386Y-12171271D01*
X17478100Y-12199843D01*
X17463814Y-12214129D01*
X17435243Y-12228414D01*
X17392386Y-12228414D01*
X17663814Y-12228414D02*
X17635243Y-12214129D01*
X17620957Y-12185557D01*
X17620957Y-11928414D01*
X17892386Y-12214129D02*
X17863814Y-12228414D01*
X17806671Y-12228414D01*
X17778100Y-12214129D01*
X17763814Y-12185557D01*
X17763814Y-12071271D01*
X17778100Y-12042700D01*
X17806671Y-12028414D01*
X17863814Y-12028414D01*
X17892386Y-12042700D01*
X17906671Y-12071271D01*
X17906671Y-12099843D01*
X17763814Y-12128414D01*
X18020957Y-12214129D02*
X18049529Y-12228414D01*
X18106671Y-12228414D01*
X18135243Y-12214129D01*
X18149529Y-12185557D01*
X18149529Y-12171271D01*
X18135243Y-12142700D01*
X18106671Y-12128414D01*
X18063814Y-12128414D01*
X18035243Y-12114129D01*
X18020957Y-12085557D01*
X18020957Y-12071271D01*
X18035243Y-12042700D01*
X18063814Y-12028414D01*
X18106671Y-12028414D01*
X18135243Y-12042700D01*
X18249528Y-12342700D02*
X18263814Y-12328414D01*
X18292386Y-12285557D01*
X18306671Y-12256986D01*
X18320957Y-12214129D01*
X18335243Y-12142700D01*
X18335243Y-12085557D01*
X18320957Y-12014129D01*
X18306671Y-11971271D01*
X18292386Y-11942700D01*
X18263814Y-11899843D01*
X18249528Y-11885557D01*
X11778100Y-12488700D02*
G75*
G03X11778100Y-12488700I-50000J0D01*
G01*
X12206671Y-12624414D02*
X12035243Y-12624414D01*
X12120957Y-12624414D02*
X12120957Y-12324414D01*
X12092386Y-12367271D01*
X12063814Y-12395843D01*
X12035243Y-12410129D01*
X12335243Y-12595843D02*
X12349528Y-12610129D01*
X12335243Y-12624414D01*
X12320957Y-12610129D01*
X12335243Y-12595843D01*
X12335243Y-12624414D01*
X12535243Y-12324414D02*
X12563814Y-12324414D01*
X12592386Y-12338700D01*
X12606671Y-12352986D01*
X12620957Y-12381557D01*
X12635243Y-12438700D01*
X12635243Y-12510129D01*
X12620957Y-12567271D01*
X12606671Y-12595843D01*
X12592386Y-12610129D01*
X12563814Y-12624414D01*
X12535243Y-12624414D01*
X12506671Y-12610129D01*
X12492386Y-12595843D01*
X12478100Y-12567271D01*
X12463814Y-12510129D01*
X12463814Y-12438700D01*
X12478100Y-12381557D01*
X12492386Y-12352986D01*
X12506671Y-12338700D01*
X12535243Y-12324414D01*
X12820957Y-12324414D02*
X12849528Y-12324414D01*
X12878100Y-12338700D01*
X12892386Y-12352986D01*
X12906671Y-12381557D01*
X12920957Y-12438700D01*
X12920957Y-12510129D01*
X12906671Y-12567271D01*
X12892386Y-12595843D01*
X12878100Y-12610129D01*
X12849528Y-12624414D01*
X12820957Y-12624414D01*
X12792386Y-12610129D01*
X12778100Y-12595843D01*
X12763814Y-12567271D01*
X12749528Y-12510129D01*
X12749528Y-12438700D01*
X12763814Y-12381557D01*
X12778100Y-12352986D01*
X12792386Y-12338700D01*
X12820957Y-12324414D01*
X13049528Y-12624414D02*
X13049528Y-12424414D01*
X13049528Y-12452986D02*
X13063814Y-12438700D01*
X13092386Y-12424414D01*
X13135243Y-12424414D01*
X13163814Y-12438700D01*
X13178100Y-12467271D01*
X13178100Y-12624414D01*
X13178100Y-12467271D02*
X13192386Y-12438700D01*
X13220957Y-12424414D01*
X13263814Y-12424414D01*
X13292386Y-12438700D01*
X13306671Y-12467271D01*
X13306671Y-12624414D01*
X13449528Y-12624414D02*
X13449528Y-12424414D01*
X13449528Y-12452986D02*
X13463814Y-12438700D01*
X13492386Y-12424414D01*
X13535243Y-12424414D01*
X13563814Y-12438700D01*
X13578100Y-12467271D01*
X13578100Y-12624414D01*
X13578100Y-12467271D02*
X13592386Y-12438700D01*
X13620957Y-12424414D01*
X13663814Y-12424414D01*
X13692386Y-12438700D01*
X13706671Y-12467271D01*
X13706671Y-12624414D01*
X14292386Y-12310129D02*
X14035243Y-12695843D01*
X14678100Y-12324414D02*
X14706671Y-12324414D01*
X14735243Y-12338700D01*
X14749528Y-12352986D01*
X14763814Y-12381557D01*
X14778100Y-12438700D01*
X14778100Y-12510129D01*
X14763814Y-12567271D01*
X14749528Y-12595843D01*
X14735243Y-12610129D01*
X14706671Y-12624414D01*
X14678100Y-12624414D01*
X14649528Y-12610129D01*
X14635243Y-12595843D01*
X14620957Y-12567271D01*
X14606671Y-12510129D01*
X14606671Y-12438700D01*
X14620957Y-12381557D01*
X14635243Y-12352986D01*
X14649528Y-12338700D01*
X14678100Y-12324414D01*
X14906671Y-12595843D02*
X14920957Y-12610129D01*
X14906671Y-12624414D01*
X14892386Y-12610129D01*
X14906671Y-12595843D01*
X14906671Y-12624414D01*
X15106671Y-12324414D02*
X15135243Y-12324414D01*
X15163814Y-12338700D01*
X15178100Y-12352986D01*
X15192385Y-12381557D01*
X15206671Y-12438700D01*
X15206671Y-12510129D01*
X15192385Y-12567271D01*
X15178100Y-12595843D01*
X15163814Y-12610129D01*
X15135243Y-12624414D01*
X15106671Y-12624414D01*
X15078100Y-12610129D01*
X15063814Y-12595843D01*
X15049528Y-12567271D01*
X15035243Y-12510129D01*
X15035243Y-12438700D01*
X15049528Y-12381557D01*
X15063814Y-12352986D01*
X15078100Y-12338700D01*
X15106671Y-12324414D01*
X15306671Y-12324414D02*
X15492385Y-12324414D01*
X15392385Y-12438700D01*
X15435243Y-12438700D01*
X15463814Y-12452986D01*
X15478100Y-12467271D01*
X15492385Y-12495843D01*
X15492385Y-12567271D01*
X15478100Y-12595843D01*
X15463814Y-12610129D01*
X15435243Y-12624414D01*
X15349528Y-12624414D01*
X15320957Y-12610129D01*
X15306671Y-12595843D01*
X15635243Y-12624414D02*
X15692385Y-12624414D01*
X15720957Y-12610129D01*
X15735243Y-12595843D01*
X15763814Y-12552986D01*
X15778100Y-12495843D01*
X15778100Y-12381557D01*
X15763814Y-12352986D01*
X15749528Y-12338700D01*
X15720957Y-12324414D01*
X15663814Y-12324414D01*
X15635243Y-12338700D01*
X15620957Y-12352986D01*
X15606671Y-12381557D01*
X15606671Y-12452986D01*
X15620957Y-12481557D01*
X15635243Y-12495843D01*
X15663814Y-12510129D01*
X15720957Y-12510129D01*
X15749528Y-12495843D01*
X15763814Y-12481557D01*
X15778100Y-12452986D01*
X15892386Y-12324414D02*
X15892386Y-12381557D01*
X16006671Y-12324414D02*
X16006671Y-12381557D01*
X16449528Y-12738700D02*
X16435243Y-12724414D01*
X16406671Y-12681557D01*
X16392385Y-12652986D01*
X16378100Y-12610129D01*
X16363814Y-12538700D01*
X16363814Y-12481557D01*
X16378100Y-12410129D01*
X16392385Y-12367271D01*
X16406671Y-12338700D01*
X16435243Y-12295843D01*
X16449528Y-12281557D01*
X16692385Y-12424414D02*
X16692385Y-12624414D01*
X16620957Y-12310129D02*
X16549528Y-12524414D01*
X16735243Y-12524414D01*
X17078100Y-12624414D02*
X17078100Y-12324414D01*
X17206671Y-12624414D02*
X17206671Y-12467271D01*
X17192386Y-12438700D01*
X17163814Y-12424414D01*
X17120957Y-12424414D01*
X17092386Y-12438700D01*
X17078100Y-12452986D01*
X17392386Y-12624414D02*
X17363814Y-12610129D01*
X17349528Y-12595843D01*
X17335243Y-12567271D01*
X17335243Y-12481557D01*
X17349528Y-12452986D01*
X17363814Y-12438700D01*
X17392386Y-12424414D01*
X17435243Y-12424414D01*
X17463814Y-12438700D01*
X17478100Y-12452986D01*
X17492386Y-12481557D01*
X17492386Y-12567271D01*
X17478100Y-12595843D01*
X17463814Y-12610129D01*
X17435243Y-12624414D01*
X17392386Y-12624414D01*
X17663814Y-12624414D02*
X17635243Y-12610129D01*
X17620957Y-12581557D01*
X17620957Y-12324414D01*
X17892386Y-12610129D02*
X17863814Y-12624414D01*
X17806671Y-12624414D01*
X17778100Y-12610129D01*
X17763814Y-12581557D01*
X17763814Y-12467271D01*
X17778100Y-12438700D01*
X17806671Y-12424414D01*
X17863814Y-12424414D01*
X17892386Y-12438700D01*
X17906671Y-12467271D01*
X17906671Y-12495843D01*
X17763814Y-12524414D01*
X18020957Y-12610129D02*
X18049529Y-12624414D01*
X18106671Y-12624414D01*
X18135243Y-12610129D01*
X18149529Y-12581557D01*
X18149529Y-12567271D01*
X18135243Y-12538700D01*
X18106671Y-12524414D01*
X18063814Y-12524414D01*
X18035243Y-12510129D01*
X18020957Y-12481557D01*
X18020957Y-12467271D01*
X18035243Y-12438700D01*
X18063814Y-12424414D01*
X18106671Y-12424414D01*
X18135243Y-12438700D01*
X18249528Y-12738700D02*
X18263814Y-12724414D01*
X18292386Y-12681557D01*
X18306671Y-12652986D01*
X18320957Y-12610129D01*
X18335243Y-12538700D01*
X18335243Y-12481557D01*
X18320957Y-12410129D01*
X18306671Y-12367271D01*
X18292386Y-12338700D01*
X18263814Y-12295843D01*
X18249528Y-12281557D01*
M02*
