G04 #@! TF.FileFunction,Copper,L2,Bot,Signal*
%FSLAX46Y46*%
G04 Gerber Fmt 4.6, Leading zero omitted, Abs format (unit mm)*
G04 Created by KiCad (PCBNEW 4.0.1-stable) date Tuesday, March 29, 2016 'AMt' 12:53:49 AM*
%MOMM*%
G01*
G04 APERTURE LIST*
%ADD10C,0.100000*%
%ADD11R,1.500000X1.500000*%
%ADD12C,1.500000*%
%ADD13O,1.501140X0.899160*%
%ADD14C,0.508000*%
%ADD15C,0.254000*%
G04 APERTURE END LIST*
D10*
D11*
X158750000Y-106680000D03*
D12*
X158750000Y-104140000D03*
X158750000Y-101600000D03*
X158750000Y-99060000D03*
D13*
X121285000Y-102870000D03*
X121285000Y-104140000D03*
X121285000Y-101600000D03*
D14*
X121285000Y-101600000D02*
X120015000Y-101600000D01*
X121539000Y-106680000D02*
X158750000Y-106680000D01*
X119507000Y-104648000D02*
X121539000Y-106680000D01*
X119507000Y-102108000D02*
X119507000Y-104648000D01*
X120015000Y-101600000D02*
X119507000Y-102108000D01*
X158750000Y-99060000D02*
X153416000Y-99060000D01*
X148336000Y-104140000D02*
X121285000Y-104140000D01*
X153416000Y-99060000D02*
X148336000Y-104140000D01*
D15*
G36*
X160909000Y-110542000D02*
X118566000Y-110542000D01*
X118566000Y-106965750D01*
X157365000Y-106965750D01*
X157365000Y-107556309D01*
X157461673Y-107789698D01*
X157640301Y-107968327D01*
X157873690Y-108065000D01*
X158464250Y-108065000D01*
X158623000Y-107906250D01*
X158623000Y-106807000D01*
X158877000Y-106807000D01*
X158877000Y-107906250D01*
X159035750Y-108065000D01*
X159626310Y-108065000D01*
X159859699Y-107968327D01*
X160038327Y-107789698D01*
X160135000Y-107556309D01*
X160135000Y-106965750D01*
X159976250Y-106807000D01*
X158877000Y-106807000D01*
X158623000Y-106807000D01*
X157523750Y-106807000D01*
X157365000Y-106965750D01*
X118566000Y-106965750D01*
X118566000Y-102870000D01*
X119872285Y-102870000D01*
X119954844Y-103285051D01*
X120101809Y-103505000D01*
X119954844Y-103724949D01*
X119872285Y-104140000D01*
X119954844Y-104555051D01*
X120189951Y-104906914D01*
X120541814Y-105142021D01*
X120956865Y-105224580D01*
X121613135Y-105224580D01*
X122028186Y-105142021D01*
X122197334Y-105029000D01*
X148336000Y-105029000D01*
X148676206Y-104961329D01*
X148964618Y-104768618D01*
X153784236Y-99949000D01*
X157680470Y-99949000D01*
X157964436Y-100233461D01*
X158196870Y-100329976D01*
X157966485Y-100425169D01*
X157576539Y-100814436D01*
X157365241Y-101323298D01*
X157364760Y-101874285D01*
X157575169Y-102383515D01*
X157964436Y-102773461D01*
X158196870Y-102869976D01*
X157966485Y-102965169D01*
X157576539Y-103354436D01*
X157365241Y-103863298D01*
X157364760Y-104414285D01*
X157575169Y-104923515D01*
X157946007Y-105295000D01*
X157873690Y-105295000D01*
X157640301Y-105391673D01*
X157461673Y-105570302D01*
X157365000Y-105803691D01*
X157365000Y-106394250D01*
X157523750Y-106553000D01*
X158623000Y-106553000D01*
X158623000Y-106533000D01*
X158877000Y-106533000D01*
X158877000Y-106553000D01*
X159976250Y-106553000D01*
X160135000Y-106394250D01*
X160135000Y-105803691D01*
X160038327Y-105570302D01*
X159859699Y-105391673D01*
X159626310Y-105295000D01*
X159553381Y-105295000D01*
X159923461Y-104925564D01*
X160134759Y-104416702D01*
X160135240Y-103865715D01*
X159924831Y-103356485D01*
X159535564Y-102966539D01*
X159303130Y-102870024D01*
X159533515Y-102774831D01*
X159923461Y-102385564D01*
X160134759Y-101876702D01*
X160135240Y-101325715D01*
X159924831Y-100816485D01*
X159535564Y-100426539D01*
X159303130Y-100330024D01*
X159533515Y-100234831D01*
X159923461Y-99845564D01*
X160134759Y-99336702D01*
X160135240Y-98785715D01*
X159924831Y-98276485D01*
X159535564Y-97886539D01*
X159026702Y-97675241D01*
X158475715Y-97674760D01*
X157966485Y-97885169D01*
X157680155Y-98171000D01*
X153416000Y-98171000D01*
X153075794Y-98238671D01*
X152787382Y-98431382D01*
X147967764Y-103251000D01*
X122621929Y-103251000D01*
X122697715Y-102870000D01*
X122615156Y-102454949D01*
X122465359Y-102230762D01*
X122629981Y-101893935D01*
X122503068Y-101727000D01*
X121412000Y-101727000D01*
X121412000Y-101747000D01*
X121158000Y-101747000D01*
X121158000Y-101727000D01*
X120066932Y-101727000D01*
X119940019Y-101893935D01*
X120104641Y-102230762D01*
X119954844Y-102454949D01*
X119872285Y-102870000D01*
X118566000Y-102870000D01*
X118566000Y-101306065D01*
X119940019Y-101306065D01*
X120066932Y-101473000D01*
X121158000Y-101473000D01*
X121158000Y-100515420D01*
X121412000Y-100515420D01*
X121412000Y-101473000D01*
X122503068Y-101473000D01*
X122629981Y-101306065D01*
X122442706Y-100922889D01*
X122118373Y-100646580D01*
X121712990Y-100515420D01*
X121412000Y-100515420D01*
X121158000Y-100515420D01*
X120857010Y-100515420D01*
X120451627Y-100646580D01*
X120127294Y-100922889D01*
X119940019Y-101306065D01*
X118566000Y-101306065D01*
X118566000Y-94182000D01*
X160909000Y-94182000D01*
X160909000Y-110542000D01*
X160909000Y-110542000D01*
G37*
X160909000Y-110542000D02*
X118566000Y-110542000D01*
X118566000Y-106965750D01*
X157365000Y-106965750D01*
X157365000Y-107556309D01*
X157461673Y-107789698D01*
X157640301Y-107968327D01*
X157873690Y-108065000D01*
X158464250Y-108065000D01*
X158623000Y-107906250D01*
X158623000Y-106807000D01*
X158877000Y-106807000D01*
X158877000Y-107906250D01*
X159035750Y-108065000D01*
X159626310Y-108065000D01*
X159859699Y-107968327D01*
X160038327Y-107789698D01*
X160135000Y-107556309D01*
X160135000Y-106965750D01*
X159976250Y-106807000D01*
X158877000Y-106807000D01*
X158623000Y-106807000D01*
X157523750Y-106807000D01*
X157365000Y-106965750D01*
X118566000Y-106965750D01*
X118566000Y-102870000D01*
X119872285Y-102870000D01*
X119954844Y-103285051D01*
X120101809Y-103505000D01*
X119954844Y-103724949D01*
X119872285Y-104140000D01*
X119954844Y-104555051D01*
X120189951Y-104906914D01*
X120541814Y-105142021D01*
X120956865Y-105224580D01*
X121613135Y-105224580D01*
X122028186Y-105142021D01*
X122197334Y-105029000D01*
X148336000Y-105029000D01*
X148676206Y-104961329D01*
X148964618Y-104768618D01*
X153784236Y-99949000D01*
X157680470Y-99949000D01*
X157964436Y-100233461D01*
X158196870Y-100329976D01*
X157966485Y-100425169D01*
X157576539Y-100814436D01*
X157365241Y-101323298D01*
X157364760Y-101874285D01*
X157575169Y-102383515D01*
X157964436Y-102773461D01*
X158196870Y-102869976D01*
X157966485Y-102965169D01*
X157576539Y-103354436D01*
X157365241Y-103863298D01*
X157364760Y-104414285D01*
X157575169Y-104923515D01*
X157946007Y-105295000D01*
X157873690Y-105295000D01*
X157640301Y-105391673D01*
X157461673Y-105570302D01*
X157365000Y-105803691D01*
X157365000Y-106394250D01*
X157523750Y-106553000D01*
X158623000Y-106553000D01*
X158623000Y-106533000D01*
X158877000Y-106533000D01*
X158877000Y-106553000D01*
X159976250Y-106553000D01*
X160135000Y-106394250D01*
X160135000Y-105803691D01*
X160038327Y-105570302D01*
X159859699Y-105391673D01*
X159626310Y-105295000D01*
X159553381Y-105295000D01*
X159923461Y-104925564D01*
X160134759Y-104416702D01*
X160135240Y-103865715D01*
X159924831Y-103356485D01*
X159535564Y-102966539D01*
X159303130Y-102870024D01*
X159533515Y-102774831D01*
X159923461Y-102385564D01*
X160134759Y-101876702D01*
X160135240Y-101325715D01*
X159924831Y-100816485D01*
X159535564Y-100426539D01*
X159303130Y-100330024D01*
X159533515Y-100234831D01*
X159923461Y-99845564D01*
X160134759Y-99336702D01*
X160135240Y-98785715D01*
X159924831Y-98276485D01*
X159535564Y-97886539D01*
X159026702Y-97675241D01*
X158475715Y-97674760D01*
X157966485Y-97885169D01*
X157680155Y-98171000D01*
X153416000Y-98171000D01*
X153075794Y-98238671D01*
X152787382Y-98431382D01*
X147967764Y-103251000D01*
X122621929Y-103251000D01*
X122697715Y-102870000D01*
X122615156Y-102454949D01*
X122465359Y-102230762D01*
X122629981Y-101893935D01*
X122503068Y-101727000D01*
X121412000Y-101727000D01*
X121412000Y-101747000D01*
X121158000Y-101747000D01*
X121158000Y-101727000D01*
X120066932Y-101727000D01*
X119940019Y-101893935D01*
X120104641Y-102230762D01*
X119954844Y-102454949D01*
X119872285Y-102870000D01*
X118566000Y-102870000D01*
X118566000Y-101306065D01*
X119940019Y-101306065D01*
X120066932Y-101473000D01*
X121158000Y-101473000D01*
X121158000Y-100515420D01*
X121412000Y-100515420D01*
X121412000Y-101473000D01*
X122503068Y-101473000D01*
X122629981Y-101306065D01*
X122442706Y-100922889D01*
X122118373Y-100646580D01*
X121712990Y-100515420D01*
X121412000Y-100515420D01*
X121158000Y-100515420D01*
X120857010Y-100515420D01*
X120451627Y-100646580D01*
X120127294Y-100922889D01*
X119940019Y-101306065D01*
X118566000Y-101306065D01*
X118566000Y-94182000D01*
X160909000Y-94182000D01*
X160909000Y-110542000D01*
M02*
