G04 #@! TF.FileFunction,Legend,Top*
%FSLAX46Y46*%
G04 Gerber Fmt 4.6, Leading zero omitted, Abs format (unit mm)*
G04 Created by KiCad (PCBNEW 4.0.1-stable) date Tuesday, March 29, 2016 'AMt' 12:53:49 AM*
%MOMM*%
G01*
G04 APERTURE LIST*
%ADD10C,0.100000*%
%ADD11C,0.150000*%
%ADD12C,0.254000*%
%ADD13C,0.050000*%
G04 APERTURE END LIST*
D10*
D11*
X126135000Y-104670000D02*
X126135000Y-100570000D01*
X129135000Y-104670000D02*
X129135000Y-100570000D01*
X132295000Y-98290000D02*
X132295000Y-97290000D01*
X130595000Y-97290000D02*
X130595000Y-98290000D01*
X136640000Y-99390000D02*
X136640000Y-96690000D01*
X135140000Y-99390000D02*
X135140000Y-96690000D01*
X136040000Y-97890000D02*
X135790000Y-97890000D01*
X135790000Y-97890000D02*
X135940000Y-98040000D01*
X135540000Y-98140000D02*
X136240000Y-98140000D01*
X135890000Y-97790000D02*
X135890000Y-97440000D01*
X135890000Y-98140000D02*
X135540000Y-97790000D01*
X135540000Y-97790000D02*
X136240000Y-97790000D01*
X136240000Y-97790000D02*
X135890000Y-98140000D01*
X157480000Y-97790000D02*
X157480000Y-107950000D01*
X157480000Y-107950000D02*
X160020000Y-107950000D01*
X160020000Y-107950000D02*
X160020000Y-97790000D01*
X160020000Y-97790000D02*
X157480000Y-97790000D01*
X149209760Y-97125840D02*
X149209760Y-97174100D01*
X149910800Y-99924820D02*
X149209760Y-99924820D01*
X149209760Y-99924820D02*
X149209760Y-99675900D01*
X149209760Y-97125840D02*
X149209760Y-96925180D01*
X149209760Y-96925180D02*
X149910800Y-96925180D01*
X150460000Y-104761000D02*
X149260000Y-104761000D01*
X149260000Y-103011000D02*
X150460000Y-103011000D01*
X152795000Y-99025000D02*
X152795000Y-97825000D01*
X154545000Y-97825000D02*
X154545000Y-99025000D01*
X146212000Y-107837000D02*
X147412000Y-107837000D01*
X147412000Y-109587000D02*
X146212000Y-109587000D01*
X141365000Y-107915000D02*
X141365000Y-106715000D01*
X143115000Y-106715000D02*
X143115000Y-107915000D01*
X145196000Y-104535000D02*
X146396000Y-104535000D01*
X146396000Y-106285000D02*
X145196000Y-106285000D01*
X141210000Y-97190000D02*
X141210000Y-98390000D01*
X139460000Y-98390000D02*
X139460000Y-97190000D01*
X145810000Y-102200000D02*
X145810000Y-101000000D01*
X147560000Y-101000000D02*
X147560000Y-102200000D01*
X144385000Y-100365000D02*
X144385000Y-101565000D01*
X142635000Y-101565000D02*
X142635000Y-100365000D01*
D12*
X155385000Y-108565000D02*
X155385000Y-109315000D01*
X155385000Y-109315000D02*
X150685000Y-109315000D01*
X150685000Y-105315000D02*
X155385000Y-105315000D01*
X155385000Y-105315000D02*
X155385000Y-106065000D01*
X150685000Y-107565000D02*
X150685000Y-107065000D01*
D11*
X120269000Y-101600000D02*
X117475000Y-101600000D01*
X120269000Y-102870000D02*
X117475000Y-102870000D01*
X120269000Y-104140000D02*
X117475000Y-104140000D01*
X117475000Y-100470000D02*
X117475000Y-105270000D01*
X117475000Y-105270000D02*
X112285000Y-105270000D01*
X112285000Y-105270000D02*
X112285000Y-100470000D01*
X112285000Y-100470000D02*
X117475000Y-100470000D01*
X133815000Y-101565000D02*
X133815000Y-101710000D01*
X137965000Y-101565000D02*
X137965000Y-101710000D01*
X137965000Y-106715000D02*
X137965000Y-106570000D01*
X133815000Y-106715000D02*
X133815000Y-106570000D01*
X133815000Y-101565000D02*
X137965000Y-101565000D01*
X133815000Y-106715000D02*
X137965000Y-106715000D01*
X133815000Y-101710000D02*
X132415000Y-101710000D01*
X130592143Y-103036666D02*
X130639762Y-103084285D01*
X130687381Y-103227142D01*
X130687381Y-103322380D01*
X130639762Y-103465238D01*
X130544524Y-103560476D01*
X130449286Y-103608095D01*
X130258810Y-103655714D01*
X130115952Y-103655714D01*
X129925476Y-103608095D01*
X129830238Y-103560476D01*
X129735000Y-103465238D01*
X129687381Y-103322380D01*
X129687381Y-103227142D01*
X129735000Y-103084285D01*
X129782619Y-103036666D01*
X130687381Y-102084285D02*
X130687381Y-102655714D01*
X130687381Y-102370000D02*
X129687381Y-102370000D01*
X129830238Y-102465238D01*
X129925476Y-102560476D01*
X129973095Y-102655714D01*
X133902143Y-97956666D02*
X133949762Y-98004285D01*
X133997381Y-98147142D01*
X133997381Y-98242380D01*
X133949762Y-98385238D01*
X133854524Y-98480476D01*
X133759286Y-98528095D01*
X133568810Y-98575714D01*
X133425952Y-98575714D01*
X133235476Y-98528095D01*
X133140238Y-98480476D01*
X133045000Y-98385238D01*
X132997381Y-98242380D01*
X132997381Y-98147142D01*
X133045000Y-98004285D01*
X133092619Y-97956666D01*
X133092619Y-97575714D02*
X133045000Y-97528095D01*
X132997381Y-97432857D01*
X132997381Y-97194761D01*
X133045000Y-97099523D01*
X133092619Y-97051904D01*
X133187857Y-97004285D01*
X133283095Y-97004285D01*
X133425952Y-97051904D01*
X133997381Y-97623333D01*
X133997381Y-97004285D01*
X138247381Y-98528095D02*
X137247381Y-98528095D01*
X137247381Y-98290000D01*
X137295000Y-98147142D01*
X137390238Y-98051904D01*
X137485476Y-98004285D01*
X137675952Y-97956666D01*
X137818810Y-97956666D01*
X138009286Y-98004285D01*
X138104524Y-98051904D01*
X138199762Y-98147142D01*
X138247381Y-98290000D01*
X138247381Y-98528095D01*
X138247381Y-97004285D02*
X138247381Y-97575714D01*
X138247381Y-97290000D02*
X137247381Y-97290000D01*
X137390238Y-97385238D01*
X137485476Y-97480476D01*
X137533095Y-97575714D01*
X161742381Y-103608095D02*
X160742381Y-103608095D01*
X160742381Y-103227142D01*
X160790000Y-103131904D01*
X160837619Y-103084285D01*
X160932857Y-103036666D01*
X161075714Y-103036666D01*
X161170952Y-103084285D01*
X161218571Y-103131904D01*
X161266190Y-103227142D01*
X161266190Y-103608095D01*
X161742381Y-102084285D02*
X161742381Y-102655714D01*
X161742381Y-102370000D02*
X160742381Y-102370000D01*
X160885238Y-102465238D01*
X160980476Y-102560476D01*
X161028095Y-102655714D01*
X148157619Y-98520238D02*
X148110000Y-98615476D01*
X148014762Y-98710714D01*
X147871905Y-98853571D01*
X147824286Y-98948810D01*
X147824286Y-99044048D01*
X148062381Y-98996429D02*
X148014762Y-99091667D01*
X147919524Y-99186905D01*
X147729048Y-99234524D01*
X147395714Y-99234524D01*
X147205238Y-99186905D01*
X147110000Y-99091667D01*
X147062381Y-98996429D01*
X147062381Y-98805952D01*
X147110000Y-98710714D01*
X147205238Y-98615476D01*
X147395714Y-98567857D01*
X147729048Y-98567857D01*
X147919524Y-98615476D01*
X148014762Y-98710714D01*
X148062381Y-98805952D01*
X148062381Y-98996429D01*
X148062381Y-97615476D02*
X148062381Y-98186905D01*
X148062381Y-97901191D02*
X147062381Y-97901191D01*
X147205238Y-97996429D01*
X147300476Y-98091667D01*
X147348095Y-98186905D01*
X152233334Y-103322381D02*
X151900000Y-102846190D01*
X151661905Y-103322381D02*
X151661905Y-102322381D01*
X152042858Y-102322381D01*
X152138096Y-102370000D01*
X152185715Y-102417619D01*
X152233334Y-102512857D01*
X152233334Y-102655714D01*
X152185715Y-102750952D01*
X152138096Y-102798571D01*
X152042858Y-102846190D01*
X151661905Y-102846190D01*
X153185715Y-103322381D02*
X152614286Y-103322381D01*
X152900000Y-103322381D02*
X152900000Y-102322381D01*
X152804762Y-102465238D01*
X152709524Y-102560476D01*
X152614286Y-102608095D01*
X156222381Y-98591666D02*
X155746190Y-98925000D01*
X156222381Y-99163095D02*
X155222381Y-99163095D01*
X155222381Y-98782142D01*
X155270000Y-98686904D01*
X155317619Y-98639285D01*
X155412857Y-98591666D01*
X155555714Y-98591666D01*
X155650952Y-98639285D01*
X155698571Y-98686904D01*
X155746190Y-98782142D01*
X155746190Y-99163095D01*
X155317619Y-98210714D02*
X155270000Y-98163095D01*
X155222381Y-98067857D01*
X155222381Y-97829761D01*
X155270000Y-97734523D01*
X155317619Y-97686904D01*
X155412857Y-97639285D01*
X155508095Y-97639285D01*
X155650952Y-97686904D01*
X156222381Y-98258333D01*
X156222381Y-97639285D01*
X149804381Y-109386666D02*
X149328190Y-109720000D01*
X149804381Y-109958095D02*
X148804381Y-109958095D01*
X148804381Y-109577142D01*
X148852000Y-109481904D01*
X148899619Y-109434285D01*
X148994857Y-109386666D01*
X149137714Y-109386666D01*
X149232952Y-109434285D01*
X149280571Y-109481904D01*
X149328190Y-109577142D01*
X149328190Y-109958095D01*
X148804381Y-109053333D02*
X148804381Y-108434285D01*
X149185333Y-108767619D01*
X149185333Y-108624761D01*
X149232952Y-108529523D01*
X149280571Y-108481904D01*
X149375810Y-108434285D01*
X149613905Y-108434285D01*
X149709143Y-108481904D01*
X149756762Y-108529523D01*
X149804381Y-108624761D01*
X149804381Y-108910476D01*
X149756762Y-109005714D01*
X149709143Y-109053333D01*
X144792381Y-107481666D02*
X144316190Y-107815000D01*
X144792381Y-108053095D02*
X143792381Y-108053095D01*
X143792381Y-107672142D01*
X143840000Y-107576904D01*
X143887619Y-107529285D01*
X143982857Y-107481666D01*
X144125714Y-107481666D01*
X144220952Y-107529285D01*
X144268571Y-107576904D01*
X144316190Y-107672142D01*
X144316190Y-108053095D01*
X144125714Y-106624523D02*
X144792381Y-106624523D01*
X143744762Y-106862619D02*
X144459048Y-107100714D01*
X144459048Y-106481666D01*
X148788381Y-106338666D02*
X148312190Y-106672000D01*
X148788381Y-106910095D02*
X147788381Y-106910095D01*
X147788381Y-106529142D01*
X147836000Y-106433904D01*
X147883619Y-106386285D01*
X147978857Y-106338666D01*
X148121714Y-106338666D01*
X148216952Y-106386285D01*
X148264571Y-106433904D01*
X148312190Y-106529142D01*
X148312190Y-106910095D01*
X147788381Y-105433904D02*
X147788381Y-105910095D01*
X148264571Y-105957714D01*
X148216952Y-105910095D01*
X148169333Y-105814857D01*
X148169333Y-105576761D01*
X148216952Y-105481523D01*
X148264571Y-105433904D01*
X148359810Y-105386285D01*
X148597905Y-105386285D01*
X148693143Y-105433904D01*
X148740762Y-105481523D01*
X148788381Y-105576761D01*
X148788381Y-105814857D01*
X148740762Y-105910095D01*
X148693143Y-105957714D01*
X142692381Y-97956666D02*
X142216190Y-98290000D01*
X142692381Y-98528095D02*
X141692381Y-98528095D01*
X141692381Y-98147142D01*
X141740000Y-98051904D01*
X141787619Y-98004285D01*
X141882857Y-97956666D01*
X142025714Y-97956666D01*
X142120952Y-98004285D01*
X142168571Y-98051904D01*
X142216190Y-98147142D01*
X142216190Y-98528095D01*
X141692381Y-97099523D02*
X141692381Y-97290000D01*
X141740000Y-97385238D01*
X141787619Y-97432857D01*
X141930476Y-97528095D01*
X142120952Y-97575714D01*
X142501905Y-97575714D01*
X142597143Y-97528095D01*
X142644762Y-97480476D01*
X142692381Y-97385238D01*
X142692381Y-97194761D01*
X142644762Y-97099523D01*
X142597143Y-97051904D01*
X142501905Y-97004285D01*
X142263810Y-97004285D01*
X142168571Y-97051904D01*
X142120952Y-97099523D01*
X142073333Y-97194761D01*
X142073333Y-97385238D01*
X142120952Y-97480476D01*
X142168571Y-97528095D01*
X142263810Y-97575714D01*
X149237381Y-101766666D02*
X148761190Y-102100000D01*
X149237381Y-102338095D02*
X148237381Y-102338095D01*
X148237381Y-101957142D01*
X148285000Y-101861904D01*
X148332619Y-101814285D01*
X148427857Y-101766666D01*
X148570714Y-101766666D01*
X148665952Y-101814285D01*
X148713571Y-101861904D01*
X148761190Y-101957142D01*
X148761190Y-102338095D01*
X148237381Y-101433333D02*
X148237381Y-100766666D01*
X149237381Y-101195238D01*
X141862381Y-101131666D02*
X141386190Y-101465000D01*
X141862381Y-101703095D02*
X140862381Y-101703095D01*
X140862381Y-101322142D01*
X140910000Y-101226904D01*
X140957619Y-101179285D01*
X141052857Y-101131666D01*
X141195714Y-101131666D01*
X141290952Y-101179285D01*
X141338571Y-101226904D01*
X141386190Y-101322142D01*
X141386190Y-101703095D01*
X141290952Y-100560238D02*
X141243333Y-100655476D01*
X141195714Y-100703095D01*
X141100476Y-100750714D01*
X141052857Y-100750714D01*
X140957619Y-100703095D01*
X140910000Y-100655476D01*
X140862381Y-100560238D01*
X140862381Y-100369761D01*
X140910000Y-100274523D01*
X140957619Y-100226904D01*
X141052857Y-100179285D01*
X141100476Y-100179285D01*
X141195714Y-100226904D01*
X141243333Y-100274523D01*
X141290952Y-100369761D01*
X141290952Y-100560238D01*
X141338571Y-100655476D01*
X141386190Y-100703095D01*
X141481429Y-100750714D01*
X141671905Y-100750714D01*
X141767143Y-100703095D01*
X141814762Y-100655476D01*
X141862381Y-100560238D01*
X141862381Y-100369761D01*
X141814762Y-100274523D01*
X141767143Y-100226904D01*
X141671905Y-100179285D01*
X141481429Y-100179285D01*
X141386190Y-100226904D01*
X141338571Y-100274523D01*
X141290952Y-100369761D01*
D13*
X154979762Y-104592381D02*
X154646428Y-104116190D01*
X154408333Y-104592381D02*
X154408333Y-103592381D01*
X154789286Y-103592381D01*
X154884524Y-103640000D01*
X154932143Y-103687619D01*
X154979762Y-103782857D01*
X154979762Y-103925714D01*
X154932143Y-104020952D01*
X154884524Y-104068571D01*
X154789286Y-104116190D01*
X154408333Y-104116190D01*
X155265476Y-103592381D02*
X155598809Y-104592381D01*
X155932143Y-103592381D01*
X156789286Y-104592381D02*
X156217857Y-104592381D01*
X156503571Y-104592381D02*
X156503571Y-103592381D01*
X156408333Y-103735238D01*
X156313095Y-103830476D01*
X156217857Y-103878095D01*
D11*
X122737381Y-102361905D02*
X123546905Y-102361905D01*
X123642143Y-102314286D01*
X123689762Y-102266667D01*
X123737381Y-102171429D01*
X123737381Y-101980952D01*
X123689762Y-101885714D01*
X123642143Y-101838095D01*
X123546905Y-101790476D01*
X122737381Y-101790476D01*
X123737381Y-100790476D02*
X123737381Y-101361905D01*
X123737381Y-101076191D02*
X122737381Y-101076191D01*
X122880238Y-101171429D01*
X122975476Y-101266667D01*
X123023095Y-101361905D01*
X135128095Y-100092381D02*
X135128095Y-100901905D01*
X135175714Y-100997143D01*
X135223333Y-101044762D01*
X135318571Y-101092381D01*
X135509048Y-101092381D01*
X135604286Y-101044762D01*
X135651905Y-100997143D01*
X135699524Y-100901905D01*
X135699524Y-100092381D01*
X136128095Y-100187619D02*
X136175714Y-100140000D01*
X136270952Y-100092381D01*
X136509048Y-100092381D01*
X136604286Y-100140000D01*
X136651905Y-100187619D01*
X136699524Y-100282857D01*
X136699524Y-100378095D01*
X136651905Y-100520952D01*
X136080476Y-101092381D01*
X136699524Y-101092381D01*
M02*
